<svg id="Layer_1" data-name="Layer 1" xmlns="http://www.w3.org/2000/svg" viewBox="0 0 250 120"><title>convert-folder-to-sites</title><circle cx="124.68" cy="57.78" r="39.25" style="fill:#f3f3f3"/><rect x="107.65" y="36.09" width="3.4" height="3.4" style="fill:#5f9fc2"/><polygon points="109.92 32.69 109.35 32.69 105.95 32.69 104.82 31.56 102.55 31.56 102.55 37.23 102.55 37.8 106.52 37.8 107.08 37.8 107.08 35.53 110.49 35.53 110.49 34.96 110.49 32.69 109.92 32.69" style="fill:#929ea4"/><path d="M122.81,55.41h-4.14V62.5h5.91V57.18Zm-3.25,1.77h1.18v.59h-1.18Zm0,1.18h2.65V59h-2.65Zm3.54,3h-3.54v-.59h3.54Zm.59-1.18h-4.13v-.59h4.13Zm-.88-3V56L124,57.18Z" style="fill:#5f9fc2"/><polygon points="125.95 68.9 122 68.9 120.66 67.69 118.05 67.69 118.05 73.76 118.05 74.37 126.55 74.37 126.55 73.76 126.55 68.9 125.95 68.9" style="fill:#929ea4"/><polygon points="125.95 80.9 122 80.9 120.66 79.69 118.05 79.69 118.05 85.76 118.05 86.37 126.55 86.37 126.55 85.76 126.55 80.9 125.95 80.9" style="fill:#929ea4"/><rect x="129.8" y="70.61" width="17.01" height="2.83" style="fill:#ccc"/><rect x="115.8" y="34.61" width="17.01" height="2.83" style="fill:#ccc"/><rect x="129.8" y="57.61" width="17.01" height="2.83" style="fill:#ccc"/><rect x="129.8" y="82.61" width="17.01" height="2.83" style="fill:#ccc"/><path d="M122.81,43.41h-4.14V50.5h5.91V45.18Zm-3.25,1.77h1.18v.59h-1.18Zm0,1.18h2.65V47h-2.65Zm3.54,3h-3.54v-.59h3.54Zm.59-1.18h-4.13v-.59h4.13Zm-.88-3V44L124,45.18Z" style="fill:#5f9fc2"/><rect x="129.8" y="45.61" width="17.01" height="2.83" style="fill:#ccc"/><line x1="106.3" y1="41.35" x2="106.3" y2="84.35" style="fill:none;stroke:#ccc;stroke-miterlimit:10;stroke-width:0.75px"/><line x1="106.05" y1="84.03" x2="114.55" y2="84.03" style="fill:none;stroke:#ccc;stroke-miterlimit:10;stroke-width:0.75px"/><line x1="106.05" y1="47.03" x2="114.55" y2="47.03" style="fill:none;stroke:#ccc;stroke-miterlimit:10;stroke-width:0.75px"/><line x1="106.05" y1="59.03" x2="114.55" y2="59.03" style="fill:none;stroke:#ccc;stroke-miterlimit:10;stroke-width:0.75px"/><line x1="106.05" y1="71.03" x2="114.55" y2="71.03" style="fill:none;stroke:#ccc;stroke-miterlimit:10;stroke-width:0.75px"/><rect x="207.37" y="18.35" width="25.51" height="28.35" rx="2.83" style="fill:#f3f3f3"/><rect x="214.96" y="31.28" width="11.34" height="8.5" style="fill:#ccc"/><rect x="213.54" y="22.82" width="14.17" height="1.42" style="fill:#ccc"/><rect x="217.8" y="26.82" width="5.67" height="1.42" style="fill:#ccc"/><text transform="translate(210.24 53.63)" style="font-size:6px;fill:#4d4d4d;font-family:Arial-ItalicMT, Arial;font-style:italic">portal</text><rect x="207.37" y="64.35" width="25.51" height="28.35" rx="2.83" style="fill:#f3f3f3"/><path d="M210.21,64.4h19.84a2.83,2.83,0,0,1,2.83,2.83v1.42a0,0,0,0,1,0,0H207.37a0,0,0,0,1,0,0V67.24A2.83,2.83,0,0,1,210.21,64.4Z" style="fill:#ccc"/><rect x="213.75" y="72.44" width="4.25" height="5.67" style="fill:#ccc"/><rect x="222.75" y="72.44" width="4.25" height="5.67" style="fill:#ccc"/><rect x="213.75" y="82.44" width="4.25" height="5.67" style="fill:#ccc"/><rect x="222.75" y="82.44" width="4.25" height="5.67" style="fill:#ccc"/><text transform="translate(213.24 100.63)" style="font-size:6px;fill:#4d4d4d;font-family:Arial-ItalicMT, Arial;font-style:italic">blog</text><rect x="16.37" y="64.35" width="25.51" height="28.35" rx="2.83" style="fill:#f3f3f3"/><path d="M22.17,69.57V83.85l6.92,4V73.57ZM24,76.76l2.46,1.42v1.64L24,78.4Zm3.32,7L24,81.86V80.23l3.32,1.92Zm0-6.93L24,74.94V73.3l3.32,1.92Z" style="fill:#ccc"/><path d="M29.17,73.57V87.85l6.92-4V69.57Zm1.87,5,2.46-1.42v1.64L31,80.24Zm3.32,3.18L31,83.7V82.06l3.32-1.91Zm0-6.93L31,76.77V75.13l3.32-1.91Z" style="fill:#ccc"/><text transform="translate(18.24 100.63)" style="font-size:6px;fill:#4d4d4d;font-family:Arial-ItalicMT, Arial;font-style:italic">ebook</text><rect x="16.37" y="18.35" width="25.51" height="28.35" rx="2.83" style="fill:#f3f3f3"/><rect x="18.71" y="25.82" width="5.67" height="1.42" style="fill:#ccc"/><path d="M19.21,18.4H39.05a2.83,2.83,0,0,1,2.83,2.83v1.42a0,0,0,0,1,0,0H16.37a0,0,0,0,1,0,0V21.24A2.83,2.83,0,0,1,19.21,18.4Z" style="fill:#ccc"/><rect x="18.8" y="28.82" width="2.83" height="1.42" style="fill:#ccc"/><rect x="18.8" y="31.82" width="3.83" height="1.42" style="fill:#ccc"/><rect x="18.8" y="34.82" width="4.83" height="1.42" style="fill:#ccc"/><rect x="27.63" y="25.82" width="10" height="1.42" style="fill:#ccc"/><rect x="27.63" y="28.82" width="10" height="1.42" style="fill:#ccc"/><rect x="27.63" y="31.82" width="6" height="1.42" style="fill:#ccc"/><rect x="27.63" y="34.82" width="9" height="1.42" style="fill:#ccc"/><rect x="27.63" y="37.82" width="10" height="1.42" style="fill:#ccc"/><rect x="27.63" y="40.82" width="10" height="1.42" style="fill:#ccc"/><text transform="translate(20.24 53.63)" style="font-size:6px;fill:#4d4d4d;font-family:Arial-ItalicMT, Arial;font-style:italic">docs</text><line x1="167.62" y1="42.83" x2="197.8" y2="34.31" style="fill:none;stroke:#ccc;stroke-miterlimit:10;stroke-width:0.75px"/><polygon points="197.3 35.81 201.64 33.22 196.59 33.29 197.3 35.81" style="fill:#ccc"/><line x1="167.62" y1="72.22" x2="197.8" y2="80.75" style="fill:none;stroke:#ccc;stroke-miterlimit:10;stroke-width:0.75px"/><polygon points="196.59 81.77 201.64 81.83 197.3 79.25 196.59 81.77" style="fill:#ccc"/><line x1="81.64" y1="72.22" x2="51.46" y2="80.75" style="fill:none;stroke:#ccc;stroke-miterlimit:10;stroke-width:0.75px"/><polygon points="51.96 79.25 47.62 81.83 52.67 81.77 51.96 79.25" style="fill:#ccc"/><line x1="81.64" y1="42.83" x2="51.46" y2="34.31" style="fill:none;stroke:#ccc;stroke-miterlimit:10;stroke-width:0.75px"/><polygon points="52.67 33.29 47.62 33.22 51.96 35.81 52.67 33.29" style="fill:#ccc"/></svg>