<svg xmlns="http://www.w3.org/2000/svg" viewBox="0 0 480 280"><title>illustration-one-click-publish</title><g id="writing-window"><rect x="14" y="16.82" width="272" height="160.18" rx="5" style="fill:#3c3f41;stroke:#3c3f41;stroke-width:2px"/><circle cx="26" cy="28" r="5" style="fill:#ee6a5e"/><circle cx="43" cy="28" r="5" style="fill:#f6c250"/><circle cx="59" cy="28" r="5" style="fill:#62ca57"/><path d="M14,41H286a0,0,0,0,1,0,0V172a5,5,0,0,1-5,5H19a5,5,0,0,1-5-5V41A0,0,0,0,1,14,41Z" style="fill:#313131"/><path d="M211,23V33l7.87-5Z" style="fill:#499c54"/><rect x="230" y="24" width="8" height="8" style="fill:#c75450"/><rect x="132.5" y="22.5" width="65" height="11" style="fill:none;stroke:#5e6060;stroke-miterlimit:10"/><rect x="250" y="21" width="1" height="14" style="fill:#515151"/><path d="M272.17,29.54h-2.38V33h-3.58V29.54h-2.38l4.17-4Z" style="fill:#3592c4"/><path d="M263,33h10V23H263Z" style="fill:none"/><rect x="263.83" y="23.21" width="8.33" height="1.25" style="fill:#3592c4"/><polygon points="191 29.5 188 26.5 194 26.5 191 29.5" style="fill:#5e6060"/><rect x="117" y="73.15" width="65.64" height="5" rx="2.5" style="fill:#bababa;opacity:0.8"/><rect x="117" y="91.05" width="65.64" height="5" rx="2.5" style="fill:#bababa;opacity:0.8"/><rect x="117" y="108.95" width="65.64" height="5" rx="2.5" style="fill:#bababa;opacity:0.8"/><rect x="117" y="126.85" width="65.64" height="5" rx="2.5" style="fill:#bababa;opacity:0.8"/><circle cx="268" cy="28" r="9.5" style="fill:none;stroke:#ff6464;opacity:0.5"/><g style="opacity:0.6"><path d="M274.5,35.5c23.3,20.39,51.32,21,52.93,67.69" style="fill:none;stroke:#ff6464"/><polygon points="324.32 102.43 327.5 107.5 330.3 102.21 324.32 102.43" style="fill:#ff6464"/></g></g><g id="website-frame"><rect x="197" y="108.82" width="272" height="160.18" rx="5" style="fill:#e8e8e8;stroke:#e8e8e8;stroke-width:2px"/><circle cx="209" cy="120" r="5" style="fill:#ee6a5e"/><circle cx="226" cy="120" r="5" style="fill:#f6c250"/><circle cx="242" cy="120" r="5" style="fill:#62ca57"/><path d="M197,133H469a0,0,0,0,1,0,0V264a5,5,0,0,1-5,5H202a5,5,0,0,1-5-5V133A0,0,0,0,1,197,133Z" style="fill:#fafafa"/><rect x="197" y="133" width="272" height="25" style="fill:#5ba13f"/><rect x="211" y="143" width="38" height="6" rx="3" style="fill:#fff"/><rect x="271" y="144.5" width="30" height="3" rx="1.5" style="fill:#eaeaea;opacity:0.8"/><rect x="314" y="144.5" width="30" height="3" rx="1.5" style="fill:#eaeaea;opacity:0.8"/><rect x="359" y="144.5" width="30" height="3" rx="1.5" style="fill:#eaeaea;opacity:0.8"/><rect x="197" y="158" width="272" height="12" style="fill:#f6f7f8"/><line x1="197" y1="170" x2="469" y2="170" style="fill:#dee5e8;stroke:#dee5e8"/><line x1="268" y1="170" x2="268" y2="267" style="fill:#dee5e8;stroke:#dee5e8"/><rect x="214" y="184.5" width="40" height="3" rx="1.5" style="fill:#aaa;opacity:0.3"/><rect x="222" y="198.5" width="31" height="3" rx="1.5" style="fill:#aaa;opacity:0.3"/><rect x="222" y="212.5" width="31" height="3" rx="1.5" style="fill:#aaa;opacity:0.3"/><rect x="214" y="226.5" width="40" height="3" rx="1.5" style="fill:#aaa;opacity:0.3"/><rect x="313" y="184" width="46" height="3" rx="1.5" style="fill:#363232;opacity:0.3"/><rect x="313" y="213" width="55" height="3" rx="1.5" style="fill:#363232;opacity:0.3"/><rect x="413" y="185" width="31" height="3" rx="1.5" style="fill:#aaa;opacity:0.2"/><rect x="413" y="199" width="40" height="3" rx="1.5" style="fill:#aaa;opacity:0.2"/><rect x="413" y="213" width="25" height="3" rx="1.5" style="fill:#aaa;opacity:0.2"/><rect x="413" y="227" width="39" height="3" rx="1.5" style="fill:#aaa;opacity:0.2"/><rect x="222" y="241" width="31" height="3" rx="1.5" style="fill:#aaa;opacity:0.3"/><rect x="313" y="198" width="55" height="3" rx="1.5" style="fill:#363232;opacity:0.3"/><rect x="313" y="227" width="55" height="3" rx="1.5" style="fill:#363232;opacity:0.3"/><rect x="313" y="241" width="55" height="3" rx="1.5" style="fill:#363232;opacity:0.3"/></g><g id="website-remote"><g style="opacity:0.75"><path d="M259.08,124h-.85c0-.11,0-.43,0-1s0-.89,0-1.07v-.82c0-.36,0-.63,0-.8a1.42,1.42,0,0,0-.24-.88.94.94,0,0,0-.76-.27,2.3,2.3,0,0,0-.78.18,6.29,6.29,0,0,0-1,.5l0,4.13h-.85c0-.14,0-.7,0-1.69s0-1.8,0-2.43v-1.58c0-.63,0-1.35,0-2.17h.85l0,3h0a7.52,7.52,0,0,1,1.26-.6,2.61,2.61,0,0,1,.83-.16,1.47,1.47,0,0,1,1.11.43,1.62,1.62,0,0,1,.41,1.18v1.17c0,.33,0,.59,0,.8s0,.7,0,1.12S259.07,123.87,259.08,124Z" style="fill:#310000"/><path d="M264,123.36l-.09.69h-.44a2.58,2.58,0,0,1-1.67-.46,1.71,1.71,0,0,1-.56-1.41c0-.39,0-.82,0-1.27v-1.7h-.9v-.63h.95v-1.27H262v1.27H264v.63H262c0,.08,0,.3,0,.67s0,.65,0,.83v1.33a1.24,1.24,0,0,0,.38,1,1.79,1.79,0,0,0,1.16.31h.4Z" style="fill:#310000"/><path d="M268.28,123.36l-.1.69h-.44a2.6,2.6,0,0,1-1.67-.46,1.71,1.71,0,0,1-.56-1.41c0-.39,0-.82,0-1.27s0-1,0-1.7h-.91v-.63h1v-1.27h.77v1.27h1.93v.63h-1.93v.67c0,.38,0,.65,0,.83v1.33a1.24,1.24,0,0,0,.37,1,1.79,1.79,0,0,0,1.16.31h.41Z" style="fill:#310000"/><path d="M274.29,121.15a2.64,2.64,0,0,1-.37,1.41,2.61,2.61,0,0,1-1,.92,4,4,0,0,1-1.21.41,6.84,6.84,0,0,1-1.24.12l0,2.46h-.86c0-.06,0-.55,0-1.48s0-1.86,0-2.8c0-.47,0-1,0-1.63s0-1.29,0-2h.61a11.12,11.12,0,0,1,1.75.11,3.56,3.56,0,0,1,1.13.42,2.31,2.31,0,0,1,.85.85A2.34,2.34,0,0,1,274.29,121.15Zm-.86,0a1.74,1.74,0,0,0-.89-1.55,2.67,2.67,0,0,0-.82-.3,5.21,5.21,0,0,0-1-.1h-.24c0,.06,0,.28,0,.64s0,1,0,1.88v.78c0,.34,0,.61,0,.81a5,5,0,0,0,1-.1,3.14,3.14,0,0,0,.83-.25,1.87,1.87,0,0,0,1.12-1.81Z" style="fill:#310000"/><path d="M278.7,122.46a1.33,1.33,0,0,1-.2.71,1.59,1.59,0,0,1-.5.5,2.5,2.5,0,0,1-.78.31,4.37,4.37,0,0,1-1,.1,5.15,5.15,0,0,1-.55,0l-.32,0,0-.7.37,0,.65,0,.48,0a1.53,1.53,0,0,0,.49-.12,1.06,1.06,0,0,0,.4-.29.69.69,0,0,0,.13-.41.52.52,0,0,0-.12-.36,1.22,1.22,0,0,0-.31-.27,4.37,4.37,0,0,0-.59-.31,5.1,5.1,0,0,1-.62-.31,1.72,1.72,0,0,1-.55-.52,1.25,1.25,0,0,1-.19-.7,1.19,1.19,0,0,1,.22-.71,1.6,1.6,0,0,1,.58-.51,2.06,2.06,0,0,1,.7-.23,4.93,4.93,0,0,1,.75-.06h.78l.06.72-.33,0a6.46,6.46,0,0,0-.65,0,2.42,2.42,0,0,0-.47.05,1.7,1.7,0,0,0-.38.12.79.79,0,0,0-.33.29.56.56,0,0,0,0,.69,1.23,1.23,0,0,0,.33.26c.15.09.35.19.6.31l.56.28a2,2,0,0,1,.57.53A1.19,1.19,0,0,1,278.7,122.46Z" style="fill:#310000"/><path d="M281.52,119.75h-1.07v-1.14h1.07Zm0,4.28h-1.07v-1.14h1.07Z" style="fill:#310000"/><path d="M286.59,116.83l-.87,2.31c-.34.92-.62,1.68-.83,2.27-.45,1.23-.84,2.32-1.17,3.28s-.52,1.51-.57,1.64l-.68-.25.6-1.64,1.17-3.23.83-2.29q.48-1.31.84-2.34Z" style="fill:#310000"/><path d="M290.26,116.83q-.36.92-.87,2.31c-.34.92-.62,1.68-.83,2.27-.45,1.23-.84,2.32-1.17,3.28s-.52,1.51-.57,1.64l-.69-.25c.07-.16.27-.71.61-1.64l1.17-3.23.83-2.29q.48-1.31.84-2.34Z" style="fill:#310000"/><path d="M298.77,124h-.85s0-.29,0-.75,0-.9,0-1.31v-.79c0-.37,0-.64,0-.82a1.36,1.36,0,0,0-.26-.9,1,1,0,0,0-.73-.24,2.27,2.27,0,0,0-.7.14,4.91,4.91,0,0,0-.92.46v.11s0,.12,0,.21c0,.29,0,.58,0,.88s0,.58,0,.85c0,.6,0,1.1,0,1.5s0,.62,0,.66h-.85s0-.26,0-.65,0-.86,0-1.4v-.81c0-.36,0-.63,0-.8a2.15,2.15,0,0,0,0-.45.82.82,0,0,0-.14-.37.71.71,0,0,0-.29-.25,1.34,1.34,0,0,0-.5-.08,2,2,0,0,0-.71.17,7.53,7.53,0,0,0-.92.51c0,.06,0,.29,0,.68v1c0,.43,0,.94,0,1.53s0,.91,0,1h-.85s0-.24,0-.63,0-1,0-1.93c0-.29,0-.69,0-1.18s0-1.06,0-1.7h.83v.62h0a6.16,6.16,0,0,1,.91-.51,2.28,2.28,0,0,1,1-.25,1.6,1.6,0,0,1,.88.22,1.2,1.2,0,0,1,.5.55h0a8.2,8.2,0,0,1,1.14-.58,2.59,2.59,0,0,1,.88-.19,1.52,1.52,0,0,1,1.16.43,1.6,1.6,0,0,1,.42,1.17c0,.38,0,.69,0,1s0,.54,0,.83c0,.6,0,1.11,0,1.52S298.77,124,298.77,124Z" style="fill:#310000"/><path d="M305.3,118.81c-.7,1.54-1.43,3.18-2.21,4.91l-1.23,2.76-.74-.27,1.11-2.3c0-.08-.25-.6-.67-1.57s-.94-2.14-1.54-3.49l.8-.35c.4,1,.8,2,1.21,3s.62,1.48.64,1.53h0s.23-.51.61-1.43.81-1.92,1.27-3Z" style="fill:#310000"/><path d="M309.55,122.46a1.33,1.33,0,0,1-.2.71,1.59,1.59,0,0,1-.5.5,2.5,2.5,0,0,1-.78.31,4.37,4.37,0,0,1-1,.1,5.15,5.15,0,0,1-.55,0l-.32,0,0-.7.37,0,.65,0,.48,0a1.53,1.53,0,0,0,.49-.12,1.06,1.06,0,0,0,.4-.29.63.63,0,0,0,.13-.41.57.57,0,0,0-.11-.36,1.71,1.71,0,0,0-.31-.27,5.08,5.08,0,0,0-.59-.31,4.63,4.63,0,0,1-.63-.31,1.72,1.72,0,0,1-.55-.52,1.25,1.25,0,0,1-.19-.7,1.19,1.19,0,0,1,.22-.71,1.6,1.6,0,0,1,.58-.51,2.06,2.06,0,0,1,.7-.23,4.93,4.93,0,0,1,.75-.06h.78l.06.72-.33,0a6.46,6.46,0,0,0-.65,0,2.42,2.42,0,0,0-.47.05,1.7,1.7,0,0,0-.38.12.79.79,0,0,0-.33.29.66.66,0,0,0-.1.32.57.57,0,0,0,.14.37,1.64,1.64,0,0,0,.33.26c.15.09.35.19.6.31s.44.21.56.28a2,2,0,0,1,.57.53A1.19,1.19,0,0,1,309.55,122.46Z" style="fill:#310000"/><path d="M312,117.55h-.95v-.92H312Zm0,6.48h-.85c0-.06,0-.41,0-1.06v-2.82c0-.44,0-1,0-1.56H312c0,.52,0,1,0,1.45s0,.85,0,1.2c0,.84,0,1.51,0,2S312,124,312,124Z" style="fill:#310000"/><path d="M316.94,123.36l-.09.69h-.44a2.58,2.58,0,0,1-1.67-.46,1.71,1.71,0,0,1-.56-1.41c0-.39,0-.82,0-1.27v-1.7h-.9v-.63h.95v-1.27H315v1.27h1.92v.63H315c0,.08,0,.3,0,.67s0,.65,0,.83v1.33a1.24,1.24,0,0,0,.38,1,1.79,1.79,0,0,0,1.16.31h.4Z" style="fill:#310000"/><path d="M322.49,121.11h-3.88a2.31,2.31,0,0,0,.24,1,2,2,0,0,0,.73.79,2.16,2.16,0,0,0,.71.29,3.74,3.74,0,0,0,.95.1h.56l.32,0-.1.71-.28,0h-.57a4.48,4.48,0,0,1-1.5-.22,2.87,2.87,0,0,1-1.05-.62,2.8,2.8,0,0,1-.59-.83,2.64,2.64,0,0,1-.24-1.14,3.17,3.17,0,0,1,.18-1.1,2.82,2.82,0,0,1,.55-.92,2.13,2.13,0,0,1,.78-.57,2.55,2.55,0,0,1,1-.19,2.48,2.48,0,0,1,.89.15,1.89,1.89,0,0,1,.67.45,2.27,2.27,0,0,1,.48.85A3.81,3.81,0,0,1,322.49,121.11Zm-.83-.6a1.82,1.82,0,0,0-.45-1,1.27,1.27,0,0,0-1-.38,1.44,1.44,0,0,0-1,.38,2.14,2.14,0,0,0-.56,1Z" style="fill:#310000"/><path d="M324.89,124h-1.07v-1.14h1.07Z" style="fill:#310000"/><path d="M330.9,124.11h-.48a10.8,10.8,0,0,1-1.59-.09,4.16,4.16,0,0,1-1.12-.35,2.62,2.62,0,0,1-1.09-.92,2.32,2.32,0,0,1-.37-1.26,2.55,2.55,0,0,1,.42-1.45,2.65,2.65,0,0,1,1.19-1,4.18,4.18,0,0,1,1.05-.33,6.6,6.6,0,0,1,1.16-.11l0-2.47h.85c0,.07,0,.57,0,1.5s0,1.87,0,2.83v2.05C330.89,123.15,330.89,123.67,330.9,124.11Zm-.83-3.77v-1a5.53,5.53,0,0,0-1,.09,3.72,3.72,0,0,0-.81.24,1.87,1.87,0,0,0-.83.71,1.92,1.92,0,0,0-.3,1.08,1.62,1.62,0,0,0,.29,1,2,2,0,0,0,.71.62,2.9,2.9,0,0,0,.83.29,4.46,4.46,0,0,0,1,.1h.13s0-.3,0-.8S330.07,121.37,330.07,120.34Z" style="fill:#310000"/><path d="M337.64,121.31a3.35,3.35,0,0,1-.22,1.19,2.76,2.76,0,0,1-.65,1,2.51,2.51,0,0,1-.78.51,2.55,2.55,0,0,1-1,.18,2.78,2.78,0,0,1-1-.17,2.49,2.49,0,0,1-.81-.52,2.67,2.67,0,0,1-.63-1,3.56,3.56,0,0,1-.22-1.22,3.15,3.15,0,0,1,.19-1.13,2.81,2.81,0,0,1,.59-.94,2.41,2.41,0,0,1,.84-.57,2.5,2.5,0,0,1,1-.2,2.71,2.71,0,0,1,1,.18,2.15,2.15,0,0,1,.81.56,2.62,2.62,0,0,1,.61,1A3.32,3.32,0,0,1,337.64,121.31Zm-.86,0a3.24,3.24,0,0,0-.16-1,2,2,0,0,0-.51-.81,1.51,1.51,0,0,0-.5-.31,1.52,1.52,0,0,0-.6-.11,1.59,1.59,0,0,0-.64.12,1.47,1.47,0,0,0-.52.37,2,2,0,0,0-.45.74,2.68,2.68,0,0,0-.16.93,2.75,2.75,0,0,0,.17,1,1.94,1.94,0,0,0,.53.79,1.42,1.42,0,0,0,.49.29,1.81,1.81,0,0,0,.58.1,1.68,1.68,0,0,0,.63-.12,1.57,1.57,0,0,0,.51-.34,2,2,0,0,0,.47-.76A2.58,2.58,0,0,0,336.78,121.35Z" style="fill:#310000"/><path d="M342.7,123.33l-.06.72h-.3a5.88,5.88,0,0,1-1.29-.13,4.31,4.31,0,0,1-1.08-.39,2.7,2.7,0,0,1-1-.94,2.35,2.35,0,0,1-.37-1.3,2.25,2.25,0,0,1,.33-1.19,2.71,2.71,0,0,1,.87-.88,3.82,3.82,0,0,1,1.16-.48,5.81,5.81,0,0,1,1.39-.16h.22l.05.72h-.17a6,6,0,0,0-1,.07,4,4,0,0,0-.82.24,1.81,1.81,0,0,0-.84.68,1.68,1.68,0,0,0-.31,1,1.86,1.86,0,0,0,.29,1.06,2,2,0,0,0,.78.66,3,3,0,0,0,.85.26,5.26,5.26,0,0,0,1,.08h.33Z" style="fill:#310000"/><path d="M348.54,124h-.82v-.62h0a6.47,6.47,0,0,1-.93.51,2.68,2.68,0,0,1-1.11.26,1.54,1.54,0,0,1-1.16-.44,1.72,1.72,0,0,1-.42-1.24c0-.28,0-.62,0-1s0-.68,0-.86,0-.73,0-1.21,0-.74,0-.81h.85s0,.31,0,.78,0,.84,0,1.12,0,.56,0,.92v.79a1.72,1.72,0,0,0,.22.93.8.8,0,0,0,.68.29,2.58,2.58,0,0,0,1.05-.25,5.72,5.72,0,0,0,.84-.46v-.59c0-.35,0-.79,0-1.32,0-.37,0-.82,0-1.35s0-.81,0-.86h.85c0,.07,0,.27,0,.61s0,.92,0,1.75c0,.46,0,.86,0,1.21S348.53,123.14,348.54,124Z" style="fill:#310000"/><path d="M358.21,124h-.85s0-.29,0-.75v-2.1c0-.37,0-.64,0-.82a1.36,1.36,0,0,0-.25-.9,1,1,0,0,0-.74-.24,2.27,2.27,0,0,0-.7.14,5.24,5.24,0,0,0-.92.46v.11a1.22,1.22,0,0,1,0,.21c0,.29,0,.58,0,.88v.85c0,.6,0,1.1,0,1.5s0,.62,0,.66h-.84s0-.26,0-.65,0-.86,0-1.4c0-.18,0-.45,0-.81v-.8a3.1,3.1,0,0,0-.05-.45.82.82,0,0,0-.14-.37.71.71,0,0,0-.29-.25,1.26,1.26,0,0,0-.5-.08,2,2,0,0,0-.71.17,8.36,8.36,0,0,0-.92.51v.68c0,.4,0,.72,0,1,0,.43,0,.94,0,1.53s0,.91,0,1h-.85s0-.24,0-.63,0-1,0-1.93v-1.18c0-.5,0-1.06,0-1.7h.84v.62h0a6,6,0,0,1,.9-.51,2.32,2.32,0,0,1,1-.25,1.57,1.57,0,0,1,.88.22,1.22,1.22,0,0,1,.51.55h0a8.14,8.14,0,0,1,1.13-.58,2.59,2.59,0,0,1,.89-.19,1.5,1.5,0,0,1,1.15.43,1.6,1.6,0,0,1,.42,1.17c0,.38,0,.69,0,1s0,.54,0,.83c0,.6,0,1.11,0,1.52S358.21,124,358.21,124Z" style="fill:#310000"/><path d="M364.33,121.11h-3.88a2.31,2.31,0,0,0,.24,1,2,2,0,0,0,.73.79,2.2,2.2,0,0,0,.7.29,3.88,3.88,0,0,0,1,.1h.56l.32,0-.1.71-.28,0H363a4.48,4.48,0,0,1-1.5-.22,2.87,2.87,0,0,1-1.05-.62,2.8,2.8,0,0,1-.59-.83,2.64,2.64,0,0,1-.24-1.14,3.17,3.17,0,0,1,.18-1.1,2.82,2.82,0,0,1,.55-.92,2.13,2.13,0,0,1,.78-.57,2.55,2.55,0,0,1,1-.19,2.48,2.48,0,0,1,.89.15,1.89,1.89,0,0,1,.67.45,2.27,2.27,0,0,1,.48.85A3.81,3.81,0,0,1,364.33,121.11Zm-.83-.6a1.82,1.82,0,0,0-.45-1,1.27,1.27,0,0,0-1-.38,1.44,1.44,0,0,0-1,.38,2.14,2.14,0,0,0-.56,1Z" style="fill:#310000"/><path d="M370.21,124h-.85c0-.1,0-.43,0-1s0-.91,0-1.05v-.82c0-.36,0-.63,0-.8a1.42,1.42,0,0,0-.24-.88.92.92,0,0,0-.76-.27,2.22,2.22,0,0,0-.81.19,6.05,6.05,0,0,0-1,.5v.63c0,.39,0,.74,0,1.06s0,.92,0,1.51,0,.89,0,.92h-.85s0-.24,0-.66,0-1,0-1.84v-1.32c0-.51,0-1,0-1.62h.84v.62h0a9,9,0,0,1,1.25-.6,2.82,2.82,0,0,1,.84-.16,1.45,1.45,0,0,1,1.1.43,1.62,1.62,0,0,1,.42,1.18c0,.45,0,.84,0,1.17s0,.59,0,.8,0,.73,0,1.22S370.21,124,370.21,124Z" style="fill:#310000"/><path d="M375.1,123.36l-.1.69h-.44a2.6,2.6,0,0,1-1.67-.46,1.71,1.71,0,0,1-.56-1.41c0-.39,0-.82,0-1.27s0-1,0-1.7h-.9v-.63h.95v-1.27h.77v1.27h1.93v.63h-1.93v.67c0,.38,0,.65,0,.83v1.33a1.24,1.24,0,0,0,.37,1,1.81,1.81,0,0,0,1.16.31h.41Z" style="fill:#310000"/><path d="M380.91,124h-.85c0-.1,0-.43,0-1s0-.91,0-1.05,0-.46,0-.82v-.8a1.49,1.49,0,0,0-.24-.88.94.94,0,0,0-.76-.27,2.22,2.22,0,0,0-.81.19,5.67,5.67,0,0,0-1,.5s0,.25,0,.63v1.06c0,.42,0,.92,0,1.51s0,.89,0,.92h-.84s0-.24,0-.66,0-1,0-1.84c0-.38,0-.82,0-1.32s0-1,0-1.62h.83v.62h0a8.48,8.48,0,0,1,1.26-.6,2.71,2.71,0,0,1,.83-.16,1.47,1.47,0,0,1,1.11.43,1.66,1.66,0,0,1,.41,1.18c0,.45,0,.84,0,1.17v.8c0,.32,0,.73,0,1.22S380.91,124,380.91,124Z" style="fill:#310000"/><path d="M387.62,121.31a3.15,3.15,0,0,1-.22,1.19,2.73,2.73,0,0,1-.64,1,2.67,2.67,0,0,1-.79.51,2.52,2.52,0,0,1-1,.18,2.83,2.83,0,0,1-1-.17,2.35,2.35,0,0,1-.8-.52,2.67,2.67,0,0,1-.63-1,3.35,3.35,0,0,1-.23-1.22,3.39,3.39,0,0,1,.19-1.13,2.69,2.69,0,0,1,.6-.94,2.57,2.57,0,0,1,1.85-.77,2.71,2.71,0,0,1,1,.18,2.32,2.32,0,0,1,.81.56,2.73,2.73,0,0,1,.6,1A3.11,3.11,0,0,1,387.62,121.31Zm-.86,0a3,3,0,0,0-.16-1,2,2,0,0,0-.51-.81,1.41,1.41,0,0,0-.5-.31,1.51,1.51,0,0,0-.59-.11,1.6,1.6,0,0,0-.65.12,1.57,1.57,0,0,0-.52.37,2.14,2.14,0,0,0-.44.74,2.69,2.69,0,0,0-.17.93,3,3,0,0,0,.17,1,1.87,1.87,0,0,0,.54.79,1.47,1.47,0,0,0,.48.29,1.86,1.86,0,0,0,.58.1,1.61,1.61,0,0,0,.63-.12,1.39,1.39,0,0,0,.51-.34,2,2,0,0,0,.47-.76A2.58,2.58,0,0,0,386.76,121.35Z" style="fill:#310000"/><path d="M393.23,124.11h-.47a10.8,10.8,0,0,1-1.59-.09,4.22,4.22,0,0,1-1.13-.35,2.66,2.66,0,0,1-1.08-.92,2.24,2.24,0,0,1-.37-1.26,2.62,2.62,0,0,1,.41-1.45,2.7,2.7,0,0,1,1.19-1,4.46,4.46,0,0,1,1.05-.33,6.69,6.69,0,0,1,1.16-.11v-2.47h.84c0,.07,0,.57,0,1.5s0,1.87,0,2.83c0,.75,0,1.44,0,2.05S393.23,123.67,393.23,124.11Zm-.83-3.77v-1a5.42,5.42,0,0,0-1,.09,3.56,3.56,0,0,0-.81.24,2,2,0,0,0-.84.71,2,2,0,0,0-.29,1.08,1.61,1.61,0,0,0,.28,1,2.11,2.11,0,0,0,.71.62,3.08,3.08,0,0,0,.84.29,4.37,4.37,0,0,0,1,.1h.14s0-.3,0-.8Z" style="fill:#310000"/><path d="M399.39,121.11h-3.88a2.31,2.31,0,0,0,.24,1,2,2,0,0,0,.72.79,2.36,2.36,0,0,0,.71.29,3.88,3.88,0,0,0,1,.1h.56l.31,0-.09.71-.29,0h-.57a4.45,4.45,0,0,1-1.49-.22,2.71,2.71,0,0,1-1.05-.62,2.74,2.74,0,0,1-.84-2,3.17,3.17,0,0,1,.19-1.1,2.82,2.82,0,0,1,.55-.92,2.13,2.13,0,0,1,.78-.57,2.55,2.55,0,0,1,1-.19,2.39,2.39,0,0,1,.88.15,1.92,1.92,0,0,1,.68.45,2.27,2.27,0,0,1,.48.85A3.81,3.81,0,0,1,399.39,121.11Zm-.83-.6a1.76,1.76,0,0,0-.46-1,1.24,1.24,0,0,0-1-.38,1.41,1.41,0,0,0-1,.38,2.06,2.06,0,0,0-.56,1Z" style="fill:#310000"/><path d="M401.79,124h-1.07v-1.14h1.07Z" style="fill:#310000"/><path d="M404.62,117.55h-.94v-.92h.94Zm-.05,6.48h-.85c0-.06,0-.41,0-1.06s0-1.18,0-1.6,0-.78,0-1.22,0-1,0-1.56h.85c0,.52,0,1,0,1.45v1.2c0,.84,0,1.51,0,2S404.57,124,404.57,124Z" style="fill:#310000"/><path d="M411.37,121.31a3.15,3.15,0,0,1-.23,1.19,2.56,2.56,0,0,1-1.42,1.49,2.55,2.55,0,0,1-1,.18,2.78,2.78,0,0,1-1-.17,2.49,2.49,0,0,1-.81-.52,2.67,2.67,0,0,1-.63-1,3.34,3.34,0,0,1-.22-1.22,3.15,3.15,0,0,1,.19-1.13,2.66,2.66,0,0,1,.59-.94,2.41,2.41,0,0,1,.84-.57,2.5,2.5,0,0,1,1-.2,2.71,2.71,0,0,1,1,.18,2.15,2.15,0,0,1,.81.56,2.76,2.76,0,0,1,.61,1A3.32,3.32,0,0,1,411.37,121.31Zm-.86,0a3,3,0,0,0-.17-1,2,2,0,0,0-.5-.81,1.51,1.51,0,0,0-.5-.31,1.52,1.52,0,0,0-.6-.11,1.56,1.56,0,0,0-.64.12,1.39,1.39,0,0,0-.52.37,2,2,0,0,0-.45.74,2.68,2.68,0,0,0-.16.93,3,3,0,0,0,.16,1,2,2,0,0,0,.54.79,1.42,1.42,0,0,0,.49.29,1.81,1.81,0,0,0,.58.1,1.68,1.68,0,0,0,.63-.12,1.57,1.57,0,0,0,.51-.34,2.17,2.17,0,0,0,.47-.76A2.82,2.82,0,0,0,410.51,121.35Z" style="fill:#310000"/><path d="M415.71,116.83c-.23.61-.52,1.38-.86,2.31s-.63,1.68-.84,2.27c-.45,1.23-.84,2.32-1.17,3.28s-.52,1.51-.57,1.64l-.68-.25.6-1.64c.34-.93.74-2,1.18-3.23.23-.66.51-1.43.83-2.29s.59-1.65.83-2.34Z" style="fill:#310000"/><path d="M420.25,121v2.17c0,.56,0,.86,0,.9l-.5,0c-.3,0-.68,0-1.15,0a5.24,5.24,0,0,1-.88-.08,3.33,3.33,0,0,1-.77-.24,1.81,1.81,0,0,1-.7-.54,1.28,1.28,0,0,1-.26-.82,1.32,1.32,0,0,1,.31-.89,2.18,2.18,0,0,1,.87-.6,4.64,4.64,0,0,1,.93-.26,11.3,11.3,0,0,1,1.33-.18,1.41,1.41,0,0,0-.21-.69,1.07,1.07,0,0,0-.52-.4,2,2,0,0,0-.52-.14,4.61,4.61,0,0,0-.68,0h-.41l-.46,0,.09-.72.32,0h.65a4.33,4.33,0,0,1,1.13.13,1.89,1.89,0,0,1,.82.43,1.7,1.7,0,0,1,.47.69A3.62,3.62,0,0,1,420.25,121Zm-.82,1.29v-.46c0-.18,0-.4,0-.64-.15,0-.43,0-.82.09a5.07,5.07,0,0,0-1,.24,1.42,1.42,0,0,0-.53.34.73.73,0,0,0-.24.56.83.83,0,0,0,.2.58,1.34,1.34,0,0,0,.55.35,3.1,3.1,0,0,0,.58.13c.21,0,.44,0,.67,0h.59s0-.14,0-.35Z" style="fill:#310000"/><path d="M425.31,119.23a6.66,6.66,0,0,0-.9.29c-.41.15-.88.36-1.41.61v.54c0,.32,0,.61,0,.89s0,.92,0,1.5,0,.91,0,1h-.85c0-.06,0-.26,0-.6s0-.92,0-1.75c0-.33,0-.8,0-1.39s0-1.17,0-1.7H423v.82h0a12.07,12.07,0,0,1,1.19-.6,6.71,6.71,0,0,1,.95-.34Z" style="fill:#310000"/><path d="M429.36,123.36l-.1.69h-.44a2.58,2.58,0,0,1-1.67-.46,1.71,1.71,0,0,1-.56-1.41c0-.39,0-.82,0-1.27s0-1,0-1.7h-.91v-.63h.95v-1.27h.78v1.27h1.93v.63h-1.93c0,.08,0,.3,0,.67v2.16a1.24,1.24,0,0,0,.37,1,1.79,1.79,0,0,0,1.16.31h.41Z" style="fill:#310000"/><path d="M431.67,117.55h-.94v-.92h.94Zm-.05,6.48h-.85c0-.06,0-.41,0-1.06v-2.82c0-.44,0-1,0-1.56h.85c0,.52,0,1,0,1.45s0,.85,0,1.2c0,.84,0,1.51,0,2S431.62,124,431.62,124Z" style="fill:#310000"/><path d="M437.22,123.33l-.06.72h-.3a5.88,5.88,0,0,1-1.29-.13,4.31,4.31,0,0,1-1.08-.39,2.8,2.8,0,0,1-1-.94,2.42,2.42,0,0,1-.36-1.3,2.25,2.25,0,0,1,.33-1.19,2.71,2.71,0,0,1,.87-.88,3.71,3.71,0,0,1,1.16-.48,5.81,5.81,0,0,1,1.39-.16h.22l.05.72H437a6,6,0,0,0-1,.07,4,4,0,0,0-.82.24,1.81,1.81,0,0,0-.84.68,1.68,1.68,0,0,0-.31,1,1.86,1.86,0,0,0,.29,1.06,1.93,1.93,0,0,0,.78.66,3,3,0,0,0,.85.26,5.23,5.23,0,0,0,1,.08h.34Z" style="fill:#310000"/><path d="M439.54,124h-.84s0-.57,0-1.57,0-1.84,0-2.5c0-.43,0-1,0-1.62s0-1.37,0-2.18h.84c0,.55,0,1.19,0,1.91s0,1.34,0,1.84c0,1.08,0,2,0,2.84S439.54,124,439.54,124Z" style="fill:#310000"/><path d="M445.76,121.11h-3.88a2.31,2.31,0,0,0,.24,1,1.94,1.94,0,0,0,.72.79,2.36,2.36,0,0,0,.71.29,3.82,3.82,0,0,0,1,.1h.56l.31,0-.09.71-.29,0h-.57a4.45,4.45,0,0,1-1.49-.22,2.71,2.71,0,0,1-1.05-.62,2.63,2.63,0,0,1-.59-.83,2.51,2.51,0,0,1-.25-1.14,3.05,3.05,0,0,1,.73-2,2.26,2.26,0,0,1,.79-.57,2.5,2.5,0,0,1,1-.19,2.44,2.44,0,0,1,.89.15,1.8,1.8,0,0,1,.67.45,2.29,2.29,0,0,1,.49.85A4.12,4.12,0,0,1,445.76,121.11Zm-.83-.6a1.76,1.76,0,0,0-.46-1,1.26,1.26,0,0,0-1-.38,1.41,1.41,0,0,0-1,.38,2.06,2.06,0,0,0-.56,1Z" style="fill:#310000"/></g><g style="opacity:0.75"><path d="M326.71,59.71a4.82,4.82,0,0,1-.36,1.89,4.14,4.14,0,0,1-.91,1.42,4,4,0,0,1-1.34.91,4.18,4.18,0,0,1-1.51.28,4.09,4.09,0,0,1-1.48-.27,4,4,0,0,1-1.26-.8,4.38,4.38,0,0,1-1-1.46,5.54,5.54,0,0,1-.08-3.76,4.26,4.26,0,0,1,.9-1.44,3.73,3.73,0,0,1,1.31-.93,4,4,0,0,1,1.6-.32,4.13,4.13,0,0,1,1.59.3,3.71,3.71,0,0,1,1.26.86,4.06,4.06,0,0,1,.94,1.49A5.12,5.12,0,0,1,326.71,59.71Zm-1.08.11a5.08,5.08,0,0,0-.28-1.63,3.33,3.33,0,0,0-.84-1.33,2.69,2.69,0,0,0-.86-.57,2.57,2.57,0,0,0-1.06-.21,2.68,2.68,0,0,0-1.95.82,3.39,3.39,0,0,0-.79,1.25,4.36,4.36,0,0,0-.29,1.56,4.44,4.44,0,0,0,.29,1.64,3.63,3.63,0,0,0,.82,1.23,2.84,2.84,0,0,0,.86.56,2.67,2.67,0,0,0,1.06.21,2.86,2.86,0,0,0,1.06-.2,3,3,0,0,0,.89-.6,3.38,3.38,0,0,0,.78-1.16A4,4,0,0,0,325.63,59.82Z" style="fill:#310000"/><path d="M334,64h-1c0-.12,0-.51,0-1.17s0-1.08,0-1.24v-1c0-.43,0-.74,0-.94a1.74,1.74,0,0,0-.28-1,1.1,1.1,0,0,0-.9-.32,2.74,2.74,0,0,0-1,.23,7.38,7.38,0,0,0-1.15.59s0,.29,0,.75,0,.87,0,1.25,0,1.08,0,1.78,0,1.06,0,1.09h-1s0-.29,0-.78,0-1.21,0-2.18c0-.44,0-1,0-1.56s0-1.23,0-1.9h1v.73h0a8.62,8.62,0,0,1,1.48-.71,3.38,3.38,0,0,1,1-.2,1.75,1.75,0,0,1,1.31.51,2,2,0,0,1,.49,1.4c0,.54,0,1,0,1.38s0,.7,0,1,0,.86,0,1.44S334,63.93,334,64Z" style="fill:#310000"/><path d="M341.2,60.51h-4.59a2.86,2.86,0,0,0,.28,1.24,2.46,2.46,0,0,0,.86.93,3,3,0,0,0,.84.35,4.6,4.6,0,0,0,1.13.12l.66,0,.37,0-.11.85-.34,0-.67,0a5.23,5.23,0,0,1-1.77-.27A3.18,3.18,0,0,1,335.92,62a3.12,3.12,0,0,1-.28-1.34,3.83,3.83,0,0,1,.21-1.31,3.71,3.71,0,0,1,.65-1.09,2.5,2.5,0,0,1,.93-.66,2.86,2.86,0,0,1,1.15-.24,2.89,2.89,0,0,1,1.05.18,2.14,2.14,0,0,1,.79.54,2.65,2.65,0,0,1,.57,1A4.83,4.83,0,0,1,341.2,60.51Zm-1-.71a2.05,2.05,0,0,0-.53-1.23,1.54,1.54,0,0,0-1.15-.45,1.68,1.68,0,0,0-1.19.45,2.61,2.61,0,0,0-.66,1.23Z" style="fill:#310000"/><path d="M350.36,63.14l-.08.85h-.35a7.4,7.4,0,0,1-1.53-.16,5,5,0,0,1-1.28-.46,3.11,3.11,0,0,1-1.19-1.11,2.85,2.85,0,0,1-.44-1.54,2.54,2.54,0,0,1,.4-1.4,3.13,3.13,0,0,1,1-1,4.56,4.56,0,0,1,1.36-.56,7,7,0,0,1,1.65-.19h.26l.05.85H350a8.2,8.2,0,0,0-1.2.08,4.09,4.09,0,0,0-1,.29,2.09,2.09,0,0,0-1,.8,2,2,0,0,0-.37,1.16,2.09,2.09,0,0,0,.35,1.25,2.23,2.23,0,0,0,.91.78,3.74,3.74,0,0,0,1,.31,7.31,7.31,0,0,0,1.18.1h.4Z" style="fill:#310000"/><path d="M353.1,64h-1c0-.05,0-.67,0-1.86s0-2.17,0-3V57.24c0-.77,0-1.63,0-2.59h1c0,.66,0,1.41,0,2.27s0,1.58,0,2.17c0,1.28,0,2.4,0,3.36S353.1,63.91,353.1,64Z" style="fill:#310000"/><path d="M356.62,56.31H355.5v-1.1h1.12ZM356.56,64h-1c0-.07,0-.48,0-1.25s0-1.4,0-1.9,0-.91,0-1.44,0-1.13,0-1.83h1c0,.61,0,1.18,0,1.71s0,1,0,1.42c0,1,0,1.77,0,2.37S356.56,63.94,356.56,64Z" style="fill:#310000"/><path d="M363.18,63.14l-.07.85h-.35a7.33,7.33,0,0,1-1.53-.16,5,5,0,0,1-1.28-.46,3.22,3.22,0,0,1-1.2-1.11,2.93,2.93,0,0,1-.43-1.54,2.54,2.54,0,0,1,.4-1.4,3.2,3.2,0,0,1,1-1,4.62,4.62,0,0,1,1.37-.56,6.9,6.9,0,0,1,1.65-.19H363l.05.85h-.2a8.1,8.1,0,0,0-1.2.08,4.31,4.31,0,0,0-1,.29,2.06,2.06,0,0,0-1,.8,2,2,0,0,0-.37,1.16,2.16,2.16,0,0,0,.34,1.25,2.25,2.25,0,0,0,.92.78,3.78,3.78,0,0,0,1,.31,7.54,7.54,0,0,0,1.19.1h.39Z" style="fill:#310000"/><path d="M365.86,64h-1c0-.08,0-.65,0-1.71s0-2.16,0-3.28V57.16c0-.73,0-1.56,0-2.51h1c0,.75,0,1.62,0,2.61s0,1.58,0,1.77c0,.43,0,1.35,0,2.74S365.86,63.89,365.86,64Zm4.54-.13-.6.56c-.94-1-1.77-1.79-2.51-2.49l-1.21-1.17h0l1.33-1.35c.79-.81,1.43-1.47,1.92-2l.61.64-1.58,1.54-1,1h0Z" style="fill:#310000"/><path d="M378.42,63.17l-.11.81h-.53a3.05,3.05,0,0,1-2-.54,2,2,0,0,1-.67-1.67c0-.47,0-1,0-1.51s0-1.21,0-2H374.1v-.74h1.13V56h.92v1.51h2.27v.74h-2.27c0,.09,0,.35,0,.79s0,.77,0,1v1.57a1.47,1.47,0,0,0,.44,1.19,2.11,2.11,0,0,0,1.37.37h.48Z" style="fill:#310000"/><path d="M385.67,60.75a3.76,3.76,0,0,1-.27,1.41,3,3,0,0,1-1.68,1.76,3.25,3.25,0,0,1-2.3,0,2.85,2.85,0,0,1-1-.61,3.08,3.08,0,0,1-.74-1.14,3.83,3.83,0,0,1-.27-1.43,3.9,3.9,0,0,1,.23-1.35,3.07,3.07,0,0,1,.7-1.1,3,3,0,0,1,1-.68,3,3,0,0,1,1.19-.24,3.09,3.09,0,0,1,1.2.22,2.85,2.85,0,0,1,1,.66,3.18,3.18,0,0,1,.71,1.12A3.85,3.85,0,0,1,385.67,60.75Zm-1,0a3.57,3.57,0,0,0-.19-1.16,2.34,2.34,0,0,0-.6-1,1.64,1.64,0,0,0-.59-.37,1.9,1.9,0,0,0-.71-.13,1.81,1.81,0,0,0-.76.14,1.88,1.88,0,0,0-.61.44,2.42,2.42,0,0,0-.53.87,3.2,3.2,0,0,0-.19,1.11,3.54,3.54,0,0,0,.2,1.19,2.27,2.27,0,0,0,.63.93,1.84,1.84,0,0,0,.57.34,2,2,0,0,0,.69.12,2,2,0,0,0,.74-.14,1.69,1.69,0,0,0,.61-.41,2.44,2.44,0,0,0,.55-.89A3,3,0,0,0,384.65,60.79Z" style="fill:#310000"/><path d="M396.17,60.55a3,3,0,0,1-.44,1.67,3.1,3.1,0,0,1-1.18,1.09,5.08,5.08,0,0,1-1.42.49,8.69,8.69,0,0,1-1.48.14l0,2.91h-1c0-.07,0-.66,0-1.76s0-2.2,0-3.3c0-.55,0-1.2,0-1.93s0-1.53,0-2.37h.71a12.06,12.06,0,0,1,2.07.14,4.21,4.21,0,0,1,1.34.49,2.73,2.73,0,0,1,1.38,2.44Zm-1,0a2,2,0,0,0-.29-1.09,2.18,2.18,0,0,0-.76-.75,3.6,3.6,0,0,0-1-.35,6.15,6.15,0,0,0-1.18-.11h-.28c0,.07,0,.32,0,.75s0,1.17,0,2.23v1.87a7,7,0,0,0,1.2-.11,3.55,3.55,0,0,0,1-.3,2.17,2.17,0,0,0,1.32-2.14Z" style="fill:#310000"/><path d="M403.11,64h-1v-.74h0a9.58,9.58,0,0,1-1.1.6,3.21,3.21,0,0,1-1.31.31,1.8,1.8,0,0,1-1.37-.53,2,2,0,0,1-.49-1.45c0-.34,0-.75,0-1.21s0-.81,0-1c0-.39,0-.86,0-1.43s0-.88,0-1h1c0,.05,0,.36,0,.91s0,1,0,1.33,0,.65,0,1.09v.93a2,2,0,0,0,.26,1.09.91.91,0,0,0,.8.35,3.07,3.07,0,0,0,1.24-.3,6.12,6.12,0,0,0,1-.53V61.7c0-.41,0-.93,0-1.55,0-.45,0-1,0-1.6s0-1,0-1h1c0,.07,0,.31,0,.71s0,1.09,0,2.07v1.43C403.1,62.17,403.1,62.9,403.11,64Z" style="fill:#310000"/><path d="M410.92,60.69A3,3,0,0,1,409,63.6a5.28,5.28,0,0,1-1.29.35,12.21,12.21,0,0,1-1.74.11h-.56c0-.32,0-.93,0-1.81s0-2,0-3.19c0-.76,0-1.5,0-2.22s0-1.44,0-2.19h1l0,2.93a8.61,8.61,0,0,1,2.08.23,4.19,4.19,0,0,1,1.31.6,2.53,2.53,0,0,1,.82,1A3,3,0,0,1,410.92,60.69Zm-1,0a2,2,0,0,0-.43-1.29,2.53,2.53,0,0,0-1.12-.75,5.42,5.42,0,0,0-.77-.19,5.87,5.87,0,0,0-.85-.06h-.31v1c0,.58,0,1.06,0,1.43,0,.71,0,1.21,0,1.5s0,.59,0,.89a7.07,7.07,0,0,0,1.27-.11,3.36,3.36,0,0,0,1-.33,2.14,2.14,0,0,0,.91-.85A2.59,2.59,0,0,0,409.9,60.72Z" style="fill:#310000"/><path d="M413.71,64h-1c0-.05,0-.67,0-1.86s0-2.17,0-3V57.24c0-.77,0-1.63,0-2.59h1c0,.66,0,1.41,0,2.27s0,1.58,0,2.17c0,1.28,0,2.4,0,3.36S413.71,63.91,413.71,64Z" style="fill:#310000"/><path d="M417.23,56.31h-1.12v-1.1h1.12ZM417.17,64h-1c0-.07,0-.48,0-1.25s0-1.4,0-1.9V59.37c0-.52,0-1.13,0-1.83h1c0,.61,0,1.18,0,1.71s0,1,0,1.42c0,1,0,1.77,0,2.37S417.17,63.94,417.17,64Z" style="fill:#310000"/><path d="M423.06,62.1a1.6,1.6,0,0,1-.23.84,2.14,2.14,0,0,1-.6.6,3,3,0,0,1-.92.36,5.26,5.26,0,0,1-1.17.12l-.65,0-.38,0,0-.83.44,0c.25,0,.51,0,.76,0a4.43,4.43,0,0,0,.57,0,1.7,1.7,0,0,0,.58-.14,1.08,1.08,0,0,0,.47-.34.79.79,0,0,0,.15-.49.64.64,0,0,0-.13-.42,1.48,1.48,0,0,0-.37-.31,4.23,4.23,0,0,0-.69-.37,6.34,6.34,0,0,1-.74-.37,1.85,1.85,0,0,1-.65-.62,1.49,1.49,0,0,1-.23-.82,1.44,1.44,0,0,1,.26-.84,1.86,1.86,0,0,1,.69-.61,2.7,2.7,0,0,1,.83-.27,6.62,6.62,0,0,1,.88-.06h.92l.07.85-.39,0c-.23,0-.49,0-.76,0a2.53,2.53,0,0,0-.56.06,1.83,1.83,0,0,0-.45.14.94.94,0,0,0-.39.34.73.73,0,0,0-.12.38.66.66,0,0,0,.17.44,1.72,1.72,0,0,0,.39.31c.17.1.41.22.71.36a6.2,6.2,0,0,1,.66.34,2.13,2.13,0,0,1,.67.62A1.38,1.38,0,0,1,423.06,62.1Z" style="fill:#310000"/><path d="M430.11,64h-1c0-.13,0-.51,0-1.15s0-1.05,0-1.26,0-.54,0-1,0-.74,0-.94a1.67,1.67,0,0,0-.28-1,1.1,1.1,0,0,0-.9-.32,2.79,2.79,0,0,0-.92.22,8.26,8.26,0,0,0-1.2.59l0,4.88h-1c0-.16,0-.83,0-2s0-2.12,0-2.87V57.23c0-.75,0-1.61,0-2.58h1l0,3.62h0a9.22,9.22,0,0,1,1.49-.7,3.15,3.15,0,0,1,1-.2,1.72,1.72,0,0,1,1.3.51,1.93,1.93,0,0,1,.49,1.4c0,.54,0,1,0,1.38s0,.7,0,1,0,.82,0,1.32S430.11,63.77,430.11,64Z" style="fill:#310000"/></g></g></svg>