<svg xmlns="http://www.w3.org/2000/svg" viewBox="0 0 480 280"><title>illustration-preview-and-run-site</title><g id="preview-window"><rect x="14" y="16.82" width="272" height="160.18" rx="5" style="fill:#3c3f41;stroke:#3c3f41;stroke-width:2px"/><circle cx="26" cy="28" r="5" style="fill:#ee6a5e"/><circle cx="43" cy="28" r="5" style="fill:#f6c250"/><circle cx="59" cy="28" r="5" style="fill:#62ca57"/><path d="M14,41H286a0,0,0,0,1,0,0V172a5,5,0,0,1-5,5H19a5,5,0,0,1-5-5V41A0,0,0,0,1,14,41Z" style="fill:#313131"/><path d="M211,22V32l7.87-5Z" style="fill:#499c54"/><rect x="230" y="23" width="8" height="8" style="fill:#c75450"/><rect x="132.5" y="21.5" width="65" height="11" style="fill:none;stroke:#5e6060;stroke-miterlimit:10"/><rect x="250" y="20" width="1" height="14" style="fill:#515151"/><path d="M272.17,28.54h-2.38V32h-3.58V28.54h-2.38l4.17-4Z" style="fill:#3592c4"/><path d="M263,32h10V22H263Z" style="fill:none"/><rect x="263.83" y="22.21" width="8.33" height="1.25" style="fill:#3592c4"/><polygon points="191 28.5 188 25.5 194 25.5 191 28.5" style="fill:#5e6060"/><path d="M150,43H285a0,0,0,0,1,0,0V170a5,5,0,0,1-5,5H151a1,1,0,0,1-1-1V43A0,0,0,0,1,150,43Z" style="fill:#3c3f41"/><rect x="48" y="73.15" width="65.64" height="5" rx="2.5" style="fill:#bababa;opacity:0.8"/><rect x="48" y="91.05" width="65.64" height="5" rx="2.5" style="fill:#bababa;opacity:0.8"/><rect x="48" y="108.95" width="65.64" height="5" rx="2.5" style="fill:#bababa;opacity:0.8"/><rect x="48" y="126.85" width="65.64" height="5" rx="2.5" style="fill:#bababa;opacity:0.8"/><rect x="188" y="73.15" width="65.64" height="5" rx="2.5" style="fill:#bababa;opacity:0.8"/><rect x="188" y="91.05" width="65.64" height="5" rx="2.5" style="fill:#bababa;opacity:0.8"/><rect x="188" y="108.95" width="65.64" height="5" rx="2.5" style="fill:#bababa;opacity:0.8"/><rect x="188" y="126.85" width="65.64" height="5" rx="2.5" style="fill:#bababa;opacity:0.8"/><g style="opacity:0.5"><path d="M121.37,82.36c3.06-3.19,11.59-10,29.13-10.3A37.27,37.27,0,0,1,176,80.94" style="fill:none;stroke:#ff6464"/><path d="M123.18,83.74a2.26,2.26,0,1,1-.26-3.18A2.25,2.25,0,0,1,123.18,83.74Z" style="fill:#ff6464"/><polygon points="173.21 82.51 179 84 177.39 78.24 173.21 82.51" style="fill:#ff6464"/></g><g style="opacity:0.5"><path d="M220.5,34.5c38.91,20.39,85.7,21,88.38,67.7" style="fill:none;stroke:#ff6464"/><polygon points="305.83 101.42 309 106.5 311.81 101.22 305.83 101.42" style="fill:#ff6464"/></g><circle cx="214" cy="27" r="9.5" style="fill:none;stroke:#ff6464;opacity:0.5"/><g style="opacity:0.75"><path d="M308.74,63.45l-.8.66L307,63l-2.62-3V60a3.19,3.19,0,0,0,.64-.27,3.66,3.66,0,0,0,.68-.46,2.05,2.05,0,0,0,.4-.54,1.7,1.7,0,0,0,.18-.85A1.42,1.42,0,0,0,306,57a1.47,1.47,0,0,0-.71-.52,2.78,2.78,0,0,0-.77-.17l-.75,0h-.53c0,.81,0,1.52,0,2.13v3.67c0,1,0,1.62,0,1.87h-1.05c0-.25,0-.75,0-1.48s0-1.63,0-2.72V58.58q0-.86,0-3.12h1.69a9.33,9.33,0,0,1,1.07.06,3.66,3.66,0,0,1,1,.27,2.28,2.28,0,0,1,1,.79,2,2,0,0,1,.37,1.21,2.13,2.13,0,0,1-.56,1.5,4.9,4.9,0,0,1-1,.89v0c.57.68,1.21,1.38,1.9,2.1Z" style="fill:#310000"/><path d="M315.34,64h-1v-.74h0a10.78,10.78,0,0,1-1.11.6,3.17,3.17,0,0,1-1.3.31,1.81,1.81,0,0,1-1.38-.53,2,2,0,0,1-.49-1.45c0-.34,0-.75,0-1.21s0-.81,0-1c0-.39,0-.86,0-1.43s0-.88,0-1h1c0,.05,0,.36,0,.91s0,1,0,1.33,0,.65,0,1.09,0,.74,0,.93a1.92,1.92,0,0,0,.26,1.09.89.89,0,0,0,.8.35,3.11,3.11,0,0,0,1.24-.3,5.94,5.94,0,0,0,1-.53c0-.06,0-.29,0-.71V60.15c0-.45,0-1,0-1.6s0-1,0-1h1c0,.07,0,.31,0,.71s0,1.09,0,2.07c0,.54,0,1,0,1.43S315.33,62.9,315.34,64Z" style="fill:#310000"/><path d="M322.93,64h-1c0-.12,0-.51,0-1.17s0-1.08,0-1.24v-1c0-.43,0-.74,0-.94a1.81,1.81,0,0,0-.28-1,1.13,1.13,0,0,0-.9-.32,2.74,2.74,0,0,0-1,.23,7.47,7.47,0,0,0-1.16.59v.75c0,.46,0,.87,0,1.25s0,1.08,0,1.78,0,1.06,0,1.09h-1s0-.29,0-.78,0-1.21,0-2.18V59.44c0-.6,0-1.23,0-1.9h1v.73h0a8.62,8.62,0,0,1,1.48-.71,3.38,3.38,0,0,1,1-.2,1.72,1.72,0,0,1,1.3.51,1.93,1.93,0,0,1,.5,1.4c0,.54,0,1,0,1.38s0,.7,0,1,0,.86,0,1.44S322.93,63.93,322.93,64Z" style="fill:#310000"/><path d="M329.54,64h-1c0-.05,0-.67,0-1.86s0-2.17,0-3c0-.5,0-1.14,0-1.91s0-1.63,0-2.59h1c0,.66,0,1.41,0,2.27s0,1.58,0,2.17c0,1.28,0,2.4,0,3.36S329.54,63.91,329.54,64Z" style="fill:#310000"/><path d="M337.57,60.75a4,4,0,0,1-.26,1.41,3.25,3.25,0,0,1-.76,1.15,3.12,3.12,0,0,1-.93.61,3.25,3.25,0,0,1-2.3,0,2.81,2.81,0,0,1-.95-.61,3.11,3.11,0,0,1-.75-1.14,3.82,3.82,0,0,1-.26-1.43,3.9,3.9,0,0,1,.22-1.35,3.22,3.22,0,0,1,.7-1.1,3.18,3.18,0,0,1,1-.68,3.06,3.06,0,0,1,1.2-.24,3,3,0,0,1,1.19.22,2.85,2.85,0,0,1,1,.66,3.36,3.36,0,0,1,.72,1.12A4.08,4.08,0,0,1,337.57,60.75Zm-1,0a3.58,3.58,0,0,0-.2-1.16,2.34,2.34,0,0,0-.6-1,1.56,1.56,0,0,0-.59-.37,1.85,1.85,0,0,0-.7-.13,1.75,1.75,0,0,0-.76.14,1.78,1.78,0,0,0-.61.44,2.29,2.29,0,0,0-.53.87,3.21,3.21,0,0,0-.2,1.11,3.54,3.54,0,0,0,.2,1.19,2.27,2.27,0,0,0,.63.93,1.77,1.77,0,0,0,.58.34,1.91,1.91,0,0,0,.68.12,2,2,0,0,0,.75-.14,1.65,1.65,0,0,0,.6-.41,2.46,2.46,0,0,0,.56-.89A3.29,3.29,0,0,0,336.56,60.79Z" style="fill:#310000"/><path d="M343.56,63.14l-.08.85h-.35a7.48,7.48,0,0,1-1.53-.16,4.77,4.77,0,0,1-1.27-.46,3.14,3.14,0,0,1-1.2-1.11,2.84,2.84,0,0,1-.43-1.54,2.62,2.62,0,0,1,.39-1.4,3.13,3.13,0,0,1,1-1,4.51,4.51,0,0,1,1.37-.56,6.88,6.88,0,0,1,1.64-.19h.26l.05.85h-.19a8.34,8.34,0,0,0-1.21.08,4.09,4.09,0,0,0-1,.29,2.09,2.09,0,0,0-1,.8,2,2,0,0,0-.37,1.16,2.17,2.17,0,0,0,.35,1.25,2.23,2.23,0,0,0,.91.78,3.74,3.74,0,0,0,1,.31,7.31,7.31,0,0,0,1.18.1h.4Z" style="fill:#310000"/><path d="M349.64,60.34c0,1,0,1.91,0,2.57s0,1,0,1.06L349,64c-.36,0-.81,0-1.36,0a6.2,6.2,0,0,1-1.05-.09,3.91,3.91,0,0,1-.91-.28,2.1,2.1,0,0,1-.82-.64,1.53,1.53,0,0,1-.32-1,1.58,1.58,0,0,1,.38-1,2.59,2.59,0,0,1,1-.71,5.36,5.36,0,0,1,1.1-.31,14.66,14.66,0,0,1,1.57-.21,1.72,1.72,0,0,0-.25-.81,1.29,1.29,0,0,0-.61-.48,2.42,2.42,0,0,0-.63-.16,4.63,4.63,0,0,0-.79-.05h-.49l-.54,0,.1-.84.38,0,.77,0a4.9,4.9,0,0,1,1.33.16,2.28,2.28,0,0,1,1,.5,2,2,0,0,1,.54.82A3.92,3.92,0,0,1,349.64,60.34Zm-1,1.53v-.54c0-.22,0-.48,0-.77-.19,0-.51,0-1,.12a5.29,5.29,0,0,0-1.17.28,1.74,1.74,0,0,0-.63.4.87.87,0,0,0-.28.66,1,1,0,0,0,.24.69,1.48,1.48,0,0,0,.64.41,3.21,3.21,0,0,0,.69.15,6.56,6.56,0,0,0,.79,0h.7v-.42C348.67,62.63,348.67,62.3,348.67,61.87Z" style="fill:#310000"/><path d="M353,64h-1c0-.05,0-.67,0-1.86s0-2.17,0-3V57.24c0-.77,0-1.63,0-2.59h1c0,.66,0,1.41,0,2.27s0,1.58,0,2.17c0,1.28,0,2.4,0,3.36S353,63.91,353,64Z" style="fill:#310000"/><path d="M367.55,57.78c-.57,1.4-1.09,2.77-1.57,4.1L365.23,64h-.78s-.18-.54-.51-1.5-.73-2.11-1.21-3.44h0l-1.23,3.28L360.86,64h-.79c0-.12-.26-.78-.69-2s-.95-2.59-1.55-4.15l.92-.41,1.76,5.2h0l1.85-5h.8l1.7,5h0l1.79-5.17Z" style="fill:#310000"/><path d="M374,60.51h-4.59a2.86,2.86,0,0,0,.29,1.24,2.38,2.38,0,0,0,.86.93,3,3,0,0,0,.83.35,4.66,4.66,0,0,0,1.13.12l.67,0,.37,0-.11.85-.34,0-.67,0a5.23,5.23,0,0,1-1.77-.27,3.41,3.41,0,0,1-1.24-.72,3.37,3.37,0,0,1-.7-1,3.13,3.13,0,0,1-.29-1.34,3.6,3.6,0,0,1,.22-1.31,3.5,3.5,0,0,1,.65-1.09,2.5,2.5,0,0,1,.93-.66,2.86,2.86,0,0,1,1.15-.24,2.89,2.89,0,0,1,1.05.18,2.23,2.23,0,0,1,.79.54,2.65,2.65,0,0,1,.57,1A4.54,4.54,0,0,1,374,60.51Zm-1-.71a2.12,2.12,0,0,0-.54-1.23,1.51,1.51,0,0,0-1.14-.45,1.66,1.66,0,0,0-1.19.45,2.44,2.44,0,0,0-.66,1.23Z" style="fill:#310000"/><path d="M381.17,60.69a3,3,0,0,1-1.89,2.91A5,5,0,0,1,378,64a12.21,12.21,0,0,1-1.74.11h-.56c0-.32,0-.93,0-1.81V56.84c0-.71,0-1.44,0-2.19h1l0,2.93a8.71,8.71,0,0,1,2.09.23,4.13,4.13,0,0,1,1.3.6,2.55,2.55,0,0,1,.83,1A3,3,0,0,1,381.17,60.69Zm-1,0a2,2,0,0,0-.44-1.29,2.53,2.53,0,0,0-1.12-.75,5.1,5.1,0,0,0-.77-.19,5.77,5.77,0,0,0-.85-.06h-.31v3.94c0,.29,0,.59,0,.89a7.27,7.27,0,0,0,1.28-.11,3.39,3.39,0,0,0,1-.33,2.09,2.09,0,0,0,.91-.85A2.49,2.49,0,0,0,380.16,60.72Z" style="fill:#310000"/><path d="M386.38,62.1a1.6,1.6,0,0,1-.22.84,2.14,2.14,0,0,1-.6.6,3,3,0,0,1-.92.36,5.32,5.32,0,0,1-1.17.12l-.65,0-.38,0,0-.83.44,0c.25,0,.51,0,.76,0a4.43,4.43,0,0,0,.57,0,1.7,1.7,0,0,0,.58-.14,1.08,1.08,0,0,0,.47-.34.79.79,0,0,0,.15-.49.64.64,0,0,0-.13-.42,1.48,1.48,0,0,0-.37-.31,4.23,4.23,0,0,0-.69-.37,5.63,5.63,0,0,1-.74-.37,2,2,0,0,1-.66-.62,1.48,1.48,0,0,1-.22-.82,1.44,1.44,0,0,1,.26-.84,1.86,1.86,0,0,1,.69-.61,2.7,2.7,0,0,1,.83-.27,6.62,6.62,0,0,1,.88-.06h.92l.07.85-.39,0c-.23,0-.49,0-.76,0a2.53,2.53,0,0,0-.56.06,1.7,1.7,0,0,0-.45.14.94.94,0,0,0-.39.34.73.73,0,0,0-.12.38.66.66,0,0,0,.17.44,1.72,1.72,0,0,0,.39.31c.17.1.41.22.71.36a5,5,0,0,1,.65.34,2.06,2.06,0,0,1,.68.62A1.38,1.38,0,0,1,386.38,62.1Z" style="fill:#310000"/><path d="M389.3,56.31h-1.11v-1.1h1.11ZM389.25,64h-1c0-.07,0-.48,0-1.25s0-1.4,0-1.9V59.37c0-.52,0-1.13,0-1.83h1c0,.61,0,1.18,0,1.71s0,1,0,1.42c0,1,0,1.77,0,2.37S389.25,63.94,389.25,64Z" style="fill:#310000"/><path d="M395.12,63.17,395,64h-.52a3.08,3.08,0,0,1-2-.54,2,2,0,0,1-.66-1.67c0-.47,0-1,0-1.51s0-1.21,0-2h-1.07v-.74h1.12V56h.92v1.51h2.27v.74h-2.27c0,.09,0,.35,0,.79s0,.77,0,1v1.57a1.44,1.44,0,0,0,.45,1.19,2.08,2.08,0,0,0,1.37.37h.47Z" style="fill:#310000"/><path d="M401.68,60.51h-4.59a2.86,2.86,0,0,0,.29,1.24,2.38,2.38,0,0,0,.86.93,3,3,0,0,0,.83.35,4.66,4.66,0,0,0,1.13.12l.67,0,.37,0-.12.85-.33,0-.67,0a5.23,5.23,0,0,1-1.77-.27,3.41,3.41,0,0,1-1.24-.72,3.37,3.37,0,0,1-.7-1,3.13,3.13,0,0,1-.29-1.34,3.6,3.6,0,0,1,.22-1.31,3.5,3.5,0,0,1,.65-1.09,2.5,2.5,0,0,1,.93-.66,2.86,2.86,0,0,1,1.15-.24,2.89,2.89,0,0,1,1.05.18,2.23,2.23,0,0,1,.79.54,2.65,2.65,0,0,1,.57,1A4.54,4.54,0,0,1,401.68,60.51Zm-1-.71a2.12,2.12,0,0,0-.54-1.23,1.51,1.51,0,0,0-1.14-.45,1.66,1.66,0,0,0-1.19.45,2.44,2.44,0,0,0-.66,1.23Z" style="fill:#310000"/><path d="M330.3,73.38c-.57,1.4-1.1,2.77-1.58,4.1L328,79.56h-.78s-.18-.54-.51-1.5S326,76,325.47,74.62h0c-.42,1.12-.84,2.21-1.24,3.28l-.62,1.66h-.78c0-.12-.26-.78-.69-2s-.95-2.59-1.56-4.15l.93-.41,1.75,5.2h0l1.86-5h.79l1.71,5h0L329.42,73Z" style="fill:#310000"/><path d="M332.94,71.91h-1.12v-1.1h1.12Zm-.06,7.65h-1c0-.07,0-.48,0-1.25s0-1.4,0-1.9V75c0-.52,0-1.13,0-1.83h1c0,.61,0,1.18,0,1.71s0,1,0,1.42c0,1,0,1.77,0,2.37S332.88,79.54,332.88,79.56Z" style="fill:#310000"/><path d="M338.76,78.77l-.12.81h-.52a3.05,3.05,0,0,1-2-.54,2,2,0,0,1-.67-1.67c0-.47,0-1,0-1.51s0-1.21,0-2h-1.07v-.74h1.13V71.63h.92v1.51h2.27v.74h-2.27c0,.09,0,.35,0,.79s0,.77,0,1v1.57a1.51,1.51,0,0,0,.44,1.2,2.16,2.16,0,0,0,1.37.36h.48Z" style="fill:#310000"/><path d="M345.63,79.56h-1c0-.13,0-.51,0-1.14s0-1.06,0-1.27,0-.54,0-1,0-.74,0-.94a1.67,1.67,0,0,0-.28-1,1.1,1.1,0,0,0-.9-.32,2.79,2.79,0,0,0-.92.22,8.26,8.26,0,0,0-1.2.59l0,4.88h-1c0-.16,0-.83,0-2s0-2.12,0-2.87V72.83c0-.75,0-1.61,0-2.58h1l0,3.62h0a9.18,9.18,0,0,1,1.48-.7,3.26,3.26,0,0,1,1-.2,1.73,1.73,0,0,1,1.31.51,1.93,1.93,0,0,1,.49,1.4c0,.54,0,1,0,1.38s0,.7,0,.95,0,.82,0,1.32S345.63,79.37,345.63,79.56Z" style="fill:#310000"/><path d="M352.24,79.56h-1s0-.67,0-1.86,0-2.17,0-3V72.84c0-.77,0-1.63,0-2.59h1c0,.66,0,1.41,0,2.27s0,1.58,0,2.17c0,1.28,0,2.4,0,3.36S352.24,79.51,352.24,79.56Z" style="fill:#310000"/><path d="M355.76,71.91h-1.11v-1.1h1.11Zm-.05,7.65h-1c0-.07,0-.48,0-1.25s0-1.4,0-1.9V75c0-.52,0-1.13,0-1.83h1q0,.92,0,1.71v1.42c0,1,0,1.77,0,2.37S355.71,79.54,355.71,79.56Z" style="fill:#310000"/><path d="M363.5,73.38l-1.76,4-1,2.18H360s-.33-.74-.93-2.06l-1.82-4.06.93-.42,2.23,5.29h0L362.63,73Z" style="fill:#310000"/><path d="M370,76.11h-4.59a2.73,2.73,0,0,0,.29,1.24,2.36,2.36,0,0,0,.85.93,2.86,2.86,0,0,0,.84.35,4.6,4.6,0,0,0,1.13.12l.66,0,.38,0-.12.85-.33,0-.68,0a5.31,5.31,0,0,1-1.77-.27,3.36,3.36,0,0,1-1.23-.72,3.2,3.2,0,0,1-.7-1,3.13,3.13,0,0,1-.29-1.34,3.83,3.83,0,0,1,.21-1.31,3.94,3.94,0,0,1,.65-1.09,2.5,2.5,0,0,1,.93-.66,2.9,2.9,0,0,1,1.16-.24,2.8,2.8,0,0,1,1,.18,2.18,2.18,0,0,1,.8.54,2.65,2.65,0,0,1,.57,1A4.54,4.54,0,0,1,370,76.11Zm-1-.71a2.12,2.12,0,0,0-.54-1.23,1.52,1.52,0,0,0-1.15-.45,1.64,1.64,0,0,0-1.18.45,2.44,2.44,0,0,0-.66,1.23Z" style="fill:#310000"/><path d="M378.61,73.89a10.51,10.51,0,0,0-1.07.34c-.48.18-1,.42-1.66.72,0,0,0,.26,0,.63v1.06c0,.5,0,1.09,0,1.78s0,1.06,0,1.14h-1c0-.07,0-.31,0-.71s0-1.09,0-2.06V75.14c0-.71,0-1.38,0-2h1v1h0a14.32,14.32,0,0,1,1.41-.71,7.91,7.91,0,0,1,1.12-.4Z" style="fill:#310000"/><path d="M384.85,76.11h-4.59a2.86,2.86,0,0,0,.28,1.24,2.46,2.46,0,0,0,.86.93,2.86,2.86,0,0,0,.84.35,4.6,4.6,0,0,0,1.13.12l.66,0,.37,0-.11.85-.34,0-.67,0a5.23,5.23,0,0,1-1.77-.27,3.36,3.36,0,0,1-1.23-.72,3.2,3.2,0,0,1-.7-1,3,3,0,0,1-.29-1.34A3.83,3.83,0,0,1,379.5,75a3.71,3.71,0,0,1,.65-1.09,2.5,2.5,0,0,1,.93-.66,2.89,2.89,0,0,1,1.15-.24,2.82,2.82,0,0,1,1,.18,2.06,2.06,0,0,1,.79.54,2.8,2.8,0,0,1,.58,1A4.86,4.86,0,0,1,384.85,76.11Zm-1-.71a2.12,2.12,0,0,0-.54-1.23,1.52,1.52,0,0,0-1.15-.45,1.64,1.64,0,0,0-1.18.45,2.44,2.44,0,0,0-.66,1.23Z" style="fill:#310000"/><path d="M387.6,79.56h-1s0-.67,0-1.86,0-2.17,0-3V72.84c0-.77,0-1.63,0-2.59h1c0,.66,0,1.41,0,2.27s0,1.58,0,2.17c0,1.28,0,2.4,0,3.36S387.6,79.51,387.6,79.56Z" style="fill:#310000"/><path d="M395.63,76.35a4,4,0,0,1-.26,1.41,3.25,3.25,0,0,1-.76,1.15,3.12,3.12,0,0,1-.93.61,3,3,0,0,1-1.16.21,3.12,3.12,0,0,1-1.14-.21,2.81,2.81,0,0,1-.95-.61,3.24,3.24,0,0,1-.75-1.14,4,4,0,0,1-.26-1.43,3.9,3.9,0,0,1,.22-1.35,3.1,3.1,0,0,1,.71-1.1,3,3,0,0,1,2.18-.92,3.09,3.09,0,0,1,1.2.22,2.91,2.91,0,0,1,.95.66A3.36,3.36,0,0,1,395.4,75,4.08,4.08,0,0,1,395.63,76.35Zm-1,0a3.58,3.58,0,0,0-.2-1.16,2.34,2.34,0,0,0-.6-1,1.6,1.6,0,0,0-.58-.37,1.94,1.94,0,0,0-.71-.13,1.74,1.74,0,0,0-1.37.58,2.29,2.29,0,0,0-.53.87,3.25,3.25,0,0,0-.2,1.11,3.54,3.54,0,0,0,.2,1.19,2.2,2.2,0,0,0,.64.93,1.63,1.63,0,0,0,.57.34,1.91,1.91,0,0,0,.68.12,2,2,0,0,0,.75-.14,1.77,1.77,0,0,0,.61-.41,2.44,2.44,0,0,0,.55-.89A3.29,3.29,0,0,0,394.62,76.39Z" style="fill:#310000"/><path d="M401.8,75.94c0,1,0,1.91,0,2.57s0,1,0,1.06l-.59.05c-.35,0-.8,0-1.36,0a6.18,6.18,0,0,1-1-.09,3.91,3.91,0,0,1-.91-.28,2.1,2.1,0,0,1-.82-.64,1.53,1.53,0,0,1-.32-1,1.58,1.58,0,0,1,.38-1.05,2.59,2.59,0,0,1,1-.71,5.36,5.36,0,0,1,1.1-.31,14.66,14.66,0,0,1,1.57-.21,1.72,1.72,0,0,0-.25-.81,1.29,1.29,0,0,0-.61-.48,2.42,2.42,0,0,0-.63-.16,4.68,4.68,0,0,0-.8,0h-.48l-.54,0,.1-.84.38,0,.77,0a4.9,4.9,0,0,1,1.33.16,2.34,2.34,0,0,1,1,.5,2,2,0,0,1,.54.82A3.92,3.92,0,0,1,401.8,75.94Zm-1,1.53v-.54c0-.22,0-.48,0-.77-.19,0-.51,0-1,.12a5.29,5.29,0,0,0-1.17.28,1.74,1.74,0,0,0-.63.4.87.87,0,0,0-.28.66,1,1,0,0,0,.24.69,1.48,1.48,0,0,0,.64.41,3.25,3.25,0,0,0,.68.15,6.87,6.87,0,0,0,.8,0h.7v-.42C400.82,78.23,400.83,77.9,400.83,77.47Z" style="fill:#310000"/><path d="M408.94,79.66h-.56a13.12,13.12,0,0,1-1.88-.1,4.77,4.77,0,0,1-1.33-.42,3.05,3.05,0,0,1-1.28-1.08,2.66,2.66,0,0,1-.44-1.49,3.09,3.09,0,0,1,.49-1.71,3.28,3.28,0,0,1,1.41-1.17,5.66,5.66,0,0,1,1.24-.38,7.14,7.14,0,0,1,1.37-.13l0-2.93h1c0,.09,0,.68,0,1.78s0,2.22,0,3.34c0,.9,0,1.7,0,2.42S408.94,79.14,408.94,79.66Zm-1-4.46V74a6.62,6.62,0,0,0-1.2.1,5,5,0,0,0-1,.29,2.23,2.23,0,0,0-1.33,2.11,1.84,1.84,0,0,0,.34,1.12,2.45,2.45,0,0,0,.83.74,4.13,4.13,0,0,0,1,.35,5.4,5.4,0,0,0,1.15.12H408v-1C408,77.31,408,76.41,408,75.2Z" style="fill:#310000"/></g><g style="opacity:0.75"><path d="M106.74,63.45l-.8.66L105,63l-2.62-3V60a3.19,3.19,0,0,0,.64-.27,3.66,3.66,0,0,0,.68-.46,2.05,2.05,0,0,0,.4-.54,1.7,1.7,0,0,0,.18-.85A1.42,1.42,0,0,0,104,57a1.47,1.47,0,0,0-.71-.52,2.78,2.78,0,0,0-.77-.17l-.75,0h-.53c0,.81,0,1.52,0,2.13v3.67c0,1,0,1.62,0,1.87h-1c0-.25,0-.75,0-1.48s0-1.63,0-2.72V58.58q0-.86,0-3.12h1.69a9.33,9.33,0,0,1,1.07.06,3.66,3.66,0,0,1,1,.27,2.28,2.28,0,0,1,1,.79,2,2,0,0,1,.37,1.21,2.13,2.13,0,0,1-.56,1.5,4.9,4.9,0,0,1-1,.89v0c.57.68,1.21,1.38,1.9,2.1Z" style="fill:#fff"/><path d="M113.06,60.51h-4.59a2.86,2.86,0,0,0,.28,1.24,2.38,2.38,0,0,0,.86.93,2.91,2.91,0,0,0,.84.35,4.6,4.6,0,0,0,1.13.12l.66,0,.37,0-.11.85-.34,0-.67,0a5.23,5.23,0,0,1-1.77-.27A3.18,3.18,0,0,1,107.78,62a3.12,3.12,0,0,1-.28-1.34,3.83,3.83,0,0,1,.21-1.31,3.71,3.71,0,0,1,.65-1.09,2.5,2.5,0,0,1,.93-.66,2.86,2.86,0,0,1,1.15-.24,2.89,2.89,0,0,1,1,.18,2.14,2.14,0,0,1,.79.54,2.65,2.65,0,0,1,.57,1A4.83,4.83,0,0,1,113.06,60.51Zm-1-.71a2.11,2.11,0,0,0-.53-1.23,1.54,1.54,0,0,0-1.15-.45,1.68,1.68,0,0,0-1.19.45,2.61,2.61,0,0,0-.66,1.23Z" style="fill:#fff"/><path d="M119.14,60.34v2.57c0,.66,0,1,0,1.06l-.59,0c-.35,0-.8,0-1.36,0a6.29,6.29,0,0,1-1.05-.09,3.82,3.82,0,0,1-.9-.28,2,2,0,0,1-.82-.64,1.53,1.53,0,0,1-.32-1,1.57,1.57,0,0,1,.37-1,2.66,2.66,0,0,1,1-.71,5.76,5.76,0,0,1,1.1-.31,14.87,14.87,0,0,1,1.58-.21,1.72,1.72,0,0,0-.25-.81,1.32,1.32,0,0,0-.62-.48,2.25,2.25,0,0,0-.62-.16,4.75,4.75,0,0,0-.8-.05h-.48l-.55,0,.1-.84.38,0,.77,0a5,5,0,0,1,1.34.16,2.24,2.24,0,0,1,1,.5,2,2,0,0,1,.55.82A4.2,4.2,0,0,1,119.14,60.34Zm-1,1.53V60.56c-.19,0-.52,0-1,.12A5.25,5.25,0,0,0,116,61a1.92,1.92,0,0,0-.63.4.9.9,0,0,0-.27.66,1,1,0,0,0,.23.69,1.54,1.54,0,0,0,.64.41,3.5,3.5,0,0,0,.69.15,6.73,6.73,0,0,0,.8,0h.7V61.87Z" style="fill:#fff"/><path d="M122.48,64h-1c0-.05,0-.67,0-1.86V57.24c0-.77,0-1.63,0-2.59h1c0,.66,0,1.41,0,2.27v2.17c0,1.28,0,2.4,0,3.36S122.48,63.91,122.48,64Z" style="fill:#fff"/><path d="M127.66,60.71h-3.45v-.86h3.45Z" style="fill:#fff"/><path d="M132.8,63.17l-.12.81h-.52a3,3,0,0,1-2-.54,2,2,0,0,1-.67-1.67c0-.47,0-1,0-1.51s0-1.21,0-2h-1.07v-.74h1.12V56h.93v1.51h2.27v.74h-2.27c0,.09,0,.35,0,.79s0,.77,0,1v1.57a1.44,1.44,0,0,0,.44,1.19,2.1,2.1,0,0,0,1.37.37h.48Z" style="fill:#fff"/><path d="M135.53,56.31h-1.11v-1.1h1.11ZM135.48,64h-1c0-.07,0-.48,0-1.25s0-1.4,0-1.9V59.37c0-.52,0-1.13,0-1.83h1q0,.91,0,1.71v1.42c0,1,0,1.77,0,2.37S135.48,63.94,135.48,64Z" style="fill:#fff"/><path d="M147,64h-1c0-.05,0-.34,0-.89s0-1.06,0-1.54c0-.19,0-.5,0-.94s0-.76,0-1a1.58,1.58,0,0,0-.3-1.06,1.17,1.17,0,0,0-.87-.29,2.44,2.44,0,0,0-.83.18,5.9,5.9,0,0,0-1.08.53v.13a1.78,1.78,0,0,1,0,.25c0,.34,0,.69,0,1s0,.69,0,1c0,.7,0,1.29,0,1.77s0,.74,0,.78h-1c0-.05,0-.3,0-.77s0-1,0-1.65c0-.21,0-.53,0-1v-.95c0-.18,0-.36-.05-.53a1.29,1.29,0,0,0-.17-.43.89.89,0,0,0-.34-.3,1.55,1.55,0,0,0-.6-.1,2.11,2.11,0,0,0-.83.21,8.32,8.32,0,0,0-1.09.6c0,.07,0,.34,0,.81s0,.85,0,1.14c0,.5,0,1.11,0,1.81s0,1.08,0,1.12h-1s0-.28,0-.74,0-1.22,0-2.28c0-.35,0-.82,0-1.4s0-1.26,0-2h1v.73h0a7.3,7.3,0,0,1,1.07-.6,2.77,2.77,0,0,1,1.14-.3,2,2,0,0,1,1,.26,1.48,1.48,0,0,1,.59.66h0a7.36,7.36,0,0,1,1.34-.68,2.94,2.94,0,0,1,1-.24,1.81,1.81,0,0,1,1.37.51,1.89,1.89,0,0,1,.49,1.38c0,.45,0,.83,0,1.14s0,.63,0,1c0,.71,0,1.31,0,1.8S147,63.93,147,64Z" style="fill:#fff"/><path d="M154.2,60.51h-4.59a2.86,2.86,0,0,0,.29,1.24,2.36,2.36,0,0,0,.85.93,3.16,3.16,0,0,0,.84.35,4.66,4.66,0,0,0,1.13.12l.67,0,.37,0-.12.85-.33,0-.68,0a5.21,5.21,0,0,1-1.76-.27,3.33,3.33,0,0,1-1.24-.72,3.37,3.37,0,0,1-.7-1,3.13,3.13,0,0,1-.29-1.34,3.6,3.6,0,0,1,.22-1.31,3.67,3.67,0,0,1,.64-1.09,2.5,2.5,0,0,1,.93-.66,2.9,2.9,0,0,1,1.16-.24,2.8,2.8,0,0,1,1,.18,2.18,2.18,0,0,1,.8.54,2.65,2.65,0,0,1,.57,1A4.54,4.54,0,0,1,154.2,60.51Zm-1-.71a2.12,2.12,0,0,0-.54-1.23,1.51,1.51,0,0,0-1.14-.45,1.66,1.66,0,0,0-1.19.45,2.44,2.44,0,0,0-.66,1.23Z" style="fill:#fff"/><path d="M164.62,60.55a3,3,0,0,1-.43,1.67A3.17,3.17,0,0,1,163,63.31a5.14,5.14,0,0,1-1.43.49,8.48,8.48,0,0,1-1.47.14l0,2.91h-1c0-.07,0-.66,0-1.76s0-2.2,0-3.3V59.86c0-.74,0-1.53,0-2.37h.71a12.06,12.06,0,0,1,2.07.14,4.3,4.3,0,0,1,1.34.49,2.93,2.93,0,0,1,1,1A2.85,2.85,0,0,1,164.62,60.55Zm-1,0a2,2,0,0,0-.29-1.09,2.27,2.27,0,0,0-.76-.75,3.6,3.6,0,0,0-1-.35,6.23,6.23,0,0,0-1.18-.11h-.29c0,.07,0,.32,0,.75s0,1.17,0,2.23c0,.21,0,.52,0,.92v1A6.75,6.75,0,0,0,161.3,63a3.63,3.63,0,0,0,1-.3,2.21,2.21,0,0,0,1.32-2.14Z" style="fill:#fff"/><path d="M170.05,58.29a10.51,10.51,0,0,0-1.07.34c-.48.18-1,.42-1.66.72V60c0,.38,0,.73,0,1.06,0,.5,0,1.09,0,1.78s0,1.06,0,1.14h-1c0-.07,0-.31,0-.71s0-1.09,0-2.06V59.54c0-.71,0-1.38,0-2h1v1h0a15.52,15.52,0,0,1,1.41-.71,7.91,7.91,0,0,1,1.12-.4Z" style="fill:#fff"/><path d="M176.29,60.51H171.7a2.86,2.86,0,0,0,.29,1.24,2.36,2.36,0,0,0,.85.93,3.16,3.16,0,0,0,.84.35,4.66,4.66,0,0,0,1.13.12l.67,0,.37,0-.12.85-.33,0-.68,0a5.21,5.21,0,0,1-1.76-.27,3.33,3.33,0,0,1-1.24-.72,3.37,3.37,0,0,1-.7-1,3.13,3.13,0,0,1-.29-1.34,3.6,3.6,0,0,1,.22-1.31,3.67,3.67,0,0,1,.64-1.09,2.5,2.5,0,0,1,.93-.66,2.9,2.9,0,0,1,1.16-.24,2.8,2.8,0,0,1,1,.18,2.18,2.18,0,0,1,.8.54,2.65,2.65,0,0,1,.57,1A4.54,4.54,0,0,1,176.29,60.51Zm-1-.71a2.12,2.12,0,0,0-.54-1.23,1.51,1.51,0,0,0-1.14-.45,1.66,1.66,0,0,0-1.19.45,2.44,2.44,0,0,0-.66,1.23Z" style="fill:#fff"/><path d="M183.38,57.78l-1.77,4-1,2.18h-.74L179,61.9c-.59-1.33-1.2-2.68-1.82-4.06l.93-.42,2.23,5.29h0l2.17-5.27Z" style="fill:#fff"/><path d="M186,56.31H184.9v-1.1H186ZM186,64h-1c0-.07,0-.48,0-1.25s0-1.4,0-1.9,0-.91,0-1.44,0-1.13,0-1.83h1c0,.61,0,1.18,0,1.71s0,1,0,1.42c0,1,0,1.77,0,2.37S186,63.94,186,64Z" style="fill:#fff"/><path d="M193.3,60.51h-4.59a2.86,2.86,0,0,0,.29,1.24,2.38,2.38,0,0,0,.86.93,3,3,0,0,0,.83.35,4.66,4.66,0,0,0,1.13.12l.67,0,.37,0-.11.85-.34,0-.67,0a5.23,5.23,0,0,1-1.77-.27,3.41,3.41,0,0,1-1.24-.72,3.37,3.37,0,0,1-.7-1,3.13,3.13,0,0,1-.29-1.34,3.6,3.6,0,0,1,.22-1.31,3.5,3.5,0,0,1,.65-1.09,2.5,2.5,0,0,1,.93-.66,2.86,2.86,0,0,1,1.15-.24,2.89,2.89,0,0,1,1.05.18,2.23,2.23,0,0,1,.79.54,2.65,2.65,0,0,1,.57,1A4.54,4.54,0,0,1,193.3,60.51Zm-1-.71a2.12,2.12,0,0,0-.54-1.23,1.51,1.51,0,0,0-1.14-.45,1.66,1.66,0,0,0-1.19.45,2.44,2.44,0,0,0-.66,1.23Z" style="fill:#fff"/><path d="M203.91,57.78c-.57,1.4-1.1,2.77-1.57,4.1L201.59,64h-.78s-.18-.54-.51-1.5-.73-2.11-1.21-3.44h0c-.42,1.12-.83,2.21-1.24,3.28s-.6,1.63-.62,1.66h-.78c0-.12-.26-.78-.69-2s-1-2.59-1.55-4.15l.92-.41,1.75,5.2h0l1.85-5h.79l1.71,5h0l1.8-5.17Z" style="fill:#fff"/></g></g><g id="website-frame"><rect x="197" y="108.82" width="272" height="160.18" rx="5" style="fill:#e8e8e8;stroke:#e8e8e8;stroke-width:2px"/><circle cx="209" cy="120" r="5" style="fill:#ee6a5e"/><circle cx="226" cy="120" r="5" style="fill:#f6c250"/><circle cx="242" cy="120" r="5" style="fill:#62ca57"/><path d="M197,133H469a0,0,0,0,1,0,0V264a5,5,0,0,1-5,5H202a5,5,0,0,1-5-5V133A0,0,0,0,1,197,133Z" style="fill:#fafafa"/><rect x="197" y="133" width="272" height="25" style="fill:#5ba13f"/><rect x="211" y="143" width="38" height="6" rx="3" style="fill:#fff"/><rect x="271" y="144.5" width="30" height="3" rx="1.5" style="fill:#eaeaea;opacity:0.8"/><rect x="314" y="144.5" width="30" height="3" rx="1.5" style="fill:#eaeaea;opacity:0.8"/><rect x="359" y="144.5" width="30" height="3" rx="1.5" style="fill:#eaeaea;opacity:0.8"/><rect x="197" y="158" width="272" height="12" style="fill:#f6f7f8"/><line x1="197" y1="170" x2="469" y2="170" style="fill:#dee5e8;stroke:#dee5e8"/><line x1="268" y1="170" x2="268" y2="267" style="fill:#dee5e8;stroke:#dee5e8"/><rect x="214" y="184.5" width="40" height="3" rx="1.5" style="fill:#aaa;opacity:0.3"/><rect x="222" y="198.5" width="31" height="3" rx="1.5" style="fill:#aaa;opacity:0.3"/><rect x="222" y="212.5" width="31" height="3" rx="1.5" style="fill:#aaa;opacity:0.3"/><rect x="214" y="226.5" width="40" height="3" rx="1.5" style="fill:#aaa;opacity:0.3"/><rect x="313" y="184" width="46" height="3" rx="1.5" style="fill:#363232;opacity:0.3"/><rect x="313" y="213" width="55" height="3" rx="1.5" style="fill:#363232;opacity:0.3"/><rect x="413" y="185" width="31" height="3" rx="1.5" style="fill:#aaa;opacity:0.2"/><rect x="413" y="199" width="40" height="3" rx="1.5" style="fill:#aaa;opacity:0.2"/><rect x="413" y="213" width="25" height="3" rx="1.5" style="fill:#aaa;opacity:0.2"/><rect x="413" y="227" width="39" height="3" rx="1.5" style="fill:#aaa;opacity:0.2"/><rect x="222" y="241" width="31" height="3" rx="1.5" style="fill:#aaa;opacity:0.3"/><rect x="313" y="198" width="55" height="3" rx="1.5" style="fill:#363232;opacity:0.3"/><rect x="313" y="227" width="55" height="3" rx="1.5" style="fill:#363232;opacity:0.3"/><rect x="313" y="241" width="55" height="3" rx="1.5" style="fill:#363232;opacity:0.3"/></g><g id="website-local"><g style="opacity:0.75"><path d="M263.08,124h-.85c0-.11,0-.43,0-1s0-.89,0-1.07v-.82c0-.36,0-.63,0-.8a1.42,1.42,0,0,0-.24-.88.94.94,0,0,0-.76-.27,2.3,2.3,0,0,0-.78.18,6.29,6.29,0,0,0-1,.5l0,4.13h-.85c0-.14,0-.7,0-1.69s0-1.8,0-2.43v-1.58c0-.63,0-1.35,0-2.17h.85l0,3h0a7.52,7.52,0,0,1,1.26-.6,2.61,2.61,0,0,1,.83-.16,1.47,1.47,0,0,1,1.11.43,1.62,1.62,0,0,1,.41,1.18v1.17c0,.33,0,.59,0,.8s0,.7,0,1.12S263.07,123.87,263.08,124Z" style="fill:#313131"/><path d="M268,123.36l-.09.69h-.44a2.58,2.58,0,0,1-1.67-.46,1.71,1.71,0,0,1-.56-1.41c0-.39,0-.82,0-1.27v-1.7h-.9v-.63h.95v-1.27H266v1.27H268v.63H266c0,.08,0,.3,0,.67s0,.65,0,.83v1.33a1.24,1.24,0,0,0,.38,1,1.79,1.79,0,0,0,1.16.31h.4Z" style="fill:#313131"/><path d="M272.28,123.36l-.1.69h-.44a2.6,2.6,0,0,1-1.67-.46,1.71,1.71,0,0,1-.56-1.41c0-.39,0-.82,0-1.27s0-1,0-1.7h-.91v-.63h1v-1.27h.77v1.27h1.93v.63h-1.93v.67c0,.38,0,.65,0,.83v1.33a1.24,1.24,0,0,0,.37,1,1.79,1.79,0,0,0,1.16.31h.41Z" style="fill:#313131"/><path d="M278.29,121.15a2.64,2.64,0,0,1-.37,1.41,2.61,2.61,0,0,1-1,.92,4,4,0,0,1-1.21.41,6.84,6.84,0,0,1-1.24.12l0,2.46h-.86c0-.06,0-.55,0-1.48s0-1.86,0-2.8c0-.47,0-1,0-1.63s0-1.29,0-2h.61a11.12,11.12,0,0,1,1.75.11,3.56,3.56,0,0,1,1.13.42,2.31,2.31,0,0,1,.85.85A2.34,2.34,0,0,1,278.29,121.15Zm-.86,0a1.74,1.74,0,0,0-.89-1.55,2.67,2.67,0,0,0-.82-.3,5.21,5.21,0,0,0-1-.1h-.24c0,.06,0,.28,0,.64s0,1,0,1.88v.78c0,.34,0,.61,0,.81a5,5,0,0,0,1-.1,3.14,3.14,0,0,0,.83-.25,1.87,1.87,0,0,0,1.12-1.81Z" style="fill:#313131"/><path d="M281.05,119.75H280v-1.14h1.08Zm0,4.28H280v-1.14h1.08Z" style="fill:#313131"/><path d="M286.12,116.83q-.36.92-.87,2.31l-.84,2.27c-.44,1.23-.83,2.32-1.16,3.28s-.53,1.51-.58,1.64l-.68-.25c.06-.16.26-.71.61-1.64l1.17-3.23c.24-.66.51-1.43.83-2.29s.6-1.65.84-2.34Z" style="fill:#313131"/><path d="M289.79,116.83q-.36.92-.87,2.31l-.84,2.27c-.44,1.23-.83,2.32-1.16,3.28s-.53,1.51-.58,1.64l-.68-.25c.06-.16.26-.71.61-1.64l1.17-3.23c.23-.66.51-1.43.83-2.29s.59-1.65.83-2.34Z" style="fill:#313131"/><path d="M291.5,124h-.85s0-.57,0-1.57v-4.12c0-.64,0-1.37,0-2.18h.85c0,.55,0,1.19,0,1.91v1.84c0,1.08,0,2,0,2.84S291.5,124,291.5,124Z" style="fill:#313131"/><path d="M298.3,121.31a3.35,3.35,0,0,1-.22,1.19,2.76,2.76,0,0,1-.65,1,2.51,2.51,0,0,1-.78.51,2.55,2.55,0,0,1-1,.18,2.78,2.78,0,0,1-1-.17,2.49,2.49,0,0,1-.81-.52,2.67,2.67,0,0,1-.63-1,3.56,3.56,0,0,1-.22-1.22,3.15,3.15,0,0,1,.19-1.13,2.81,2.81,0,0,1,.59-.94,2.41,2.41,0,0,1,.84-.57,2.5,2.5,0,0,1,1-.2,2.71,2.71,0,0,1,1,.18,2.15,2.15,0,0,1,.81.56,2.62,2.62,0,0,1,.61,1A3.32,3.32,0,0,1,298.3,121.31Zm-.86,0a3.24,3.24,0,0,0-.16-1,2,2,0,0,0-.51-.81,1.51,1.51,0,0,0-.5-.31,1.52,1.52,0,0,0-.6-.11,1.59,1.59,0,0,0-.64.12,1.47,1.47,0,0,0-.52.37,2,2,0,0,0-.45.74,2.68,2.68,0,0,0-.16.93,3,3,0,0,0,.17,1,1.94,1.94,0,0,0,.53.79,1.42,1.42,0,0,0,.49.29,1.81,1.81,0,0,0,.58.1,1.68,1.68,0,0,0,.63-.12,1.57,1.57,0,0,0,.51-.34,2,2,0,0,0,.47-.76A2.58,2.58,0,0,0,297.44,121.35Z" style="fill:#313131"/><path d="M303.36,123.33l-.06.72H303a5.88,5.88,0,0,1-1.29-.13,4.31,4.31,0,0,1-1.08-.39,2.7,2.7,0,0,1-1-.94,2.35,2.35,0,0,1-.37-1.3,2.25,2.25,0,0,1,.33-1.19,2.71,2.71,0,0,1,.87-.88,3.82,3.82,0,0,1,1.16-.48,5.81,5.81,0,0,1,1.39-.16h.22l0,.72h-.17a6,6,0,0,0-1,.07,4,4,0,0,0-.82.24,1.81,1.81,0,0,0-.84.68,1.68,1.68,0,0,0-.31,1,1.86,1.86,0,0,0,.29,1.06,2,2,0,0,0,.78.66,3,3,0,0,0,.85.26,5.26,5.26,0,0,0,1,.08h.33Z" style="fill:#313131"/><path d="M308.51,121c0,.89,0,1.61,0,2.17v.9l-.5,0c-.3,0-.68,0-1.15,0A5.45,5.45,0,0,1,306,124a3.4,3.4,0,0,1-.76-.24,1.81,1.81,0,0,1-.7-.54,1.28,1.28,0,0,1-.27-.82,1.33,1.33,0,0,1,.32-.89,2.18,2.18,0,0,1,.87-.6,4.28,4.28,0,0,1,.93-.26,11,11,0,0,1,1.33-.18,1.41,1.41,0,0,0-.21-.69,1.12,1.12,0,0,0-.52-.4,2.09,2.09,0,0,0-.52-.14,4.61,4.61,0,0,0-.68,0h-.41l-.46,0,.08-.72.32,0h.66a4.33,4.33,0,0,1,1.13.13,2,2,0,0,1,.82.43,1.59,1.59,0,0,1,.46.69A3.33,3.33,0,0,1,308.51,121Zm-.82,1.29v-.46c0-.18,0-.4,0-.64-.15,0-.43,0-.82.09a5.07,5.07,0,0,0-1,.24,1.42,1.42,0,0,0-.53.34.73.73,0,0,0-.24.56.83.83,0,0,0,.2.58,1.3,1.3,0,0,0,.54.35,3.41,3.41,0,0,0,.59.13c.21,0,.44,0,.67,0h.59s0-.14,0-.35Z" style="fill:#313131"/><path d="M311.33,124h-.84s0-.57,0-1.57,0-1.84,0-2.5c0-.43,0-1,0-1.62s0-1.37,0-2.18h.84c0,.55,0,1.19,0,1.91s0,1.34,0,1.84c0,1.08,0,2,0,2.84S311.33,124,311.33,124Z" style="fill:#313131"/><path d="M317.82,124H317c0-.11,0-.43,0-1s0-.89,0-1.07v-.82c0-.36,0-.63,0-.8a1.42,1.42,0,0,0-.24-.88.92.92,0,0,0-.76-.27,2.35,2.35,0,0,0-.78.18,6.29,6.29,0,0,0-1,.5l0,4.13h-.85c0-.14,0-.7,0-1.69s0-1.8,0-2.43v-1.58c0-.63,0-1.35,0-2.17h.85l0,3h0a7.52,7.52,0,0,1,1.26-.6,2.67,2.67,0,0,1,.84-.16,1.45,1.45,0,0,1,1.1.43,1.62,1.62,0,0,1,.42,1.18c0,.45,0,.84,0,1.17s0,.59,0,.8,0,.7,0,1.12S317.81,123.87,317.82,124Z" style="fill:#313131"/><path d="M324.53,121.31a3.15,3.15,0,0,1-.23,1.19,2.61,2.61,0,0,1-.64,1,2.76,2.76,0,0,1-.78.51,2.57,2.57,0,0,1-1,.18,2.77,2.77,0,0,1-1-.17,2.49,2.49,0,0,1-.81-.52,2.67,2.67,0,0,1-.63-1,3.34,3.34,0,0,1-.22-1.22,3.15,3.15,0,0,1,.19-1.13,2.66,2.66,0,0,1,.59-.94,2.41,2.41,0,0,1,.84-.57,2.5,2.5,0,0,1,1-.2,2.71,2.71,0,0,1,1,.18,2.32,2.32,0,0,1,.81.56,2.76,2.76,0,0,1,.61,1A3.32,3.32,0,0,1,324.53,121.31Zm-.86,0a3,3,0,0,0-.17-1,2.09,2.09,0,0,0-.5-.81,1.51,1.51,0,0,0-.5-.31,1.52,1.52,0,0,0-.6-.11,1.64,1.64,0,0,0-.65.12,1.44,1.44,0,0,0-.51.37,2,2,0,0,0-.45.74,2.68,2.68,0,0,0-.16.93,3,3,0,0,0,.16,1,2,2,0,0,0,.54.79,1.47,1.47,0,0,0,.48.29,1.91,1.91,0,0,0,.58.1,1.69,1.69,0,0,0,.64-.12A1.57,1.57,0,0,0,323,123a2.17,2.17,0,0,0,.47-.76A2.82,2.82,0,0,0,323.67,121.35Z" style="fill:#313131"/><path d="M329,122.46a1.33,1.33,0,0,1-.2.71,1.59,1.59,0,0,1-.5.5,2.5,2.5,0,0,1-.78.31,4.37,4.37,0,0,1-1,.1,5.15,5.15,0,0,1-.55,0l-.32,0,0-.7.37,0,.65,0,.48,0a1.53,1.53,0,0,0,.49-.12,1.06,1.06,0,0,0,.4-.29.63.63,0,0,0,.13-.41.57.57,0,0,0-.11-.36,1.71,1.71,0,0,0-.31-.27,5.08,5.08,0,0,0-.59-.31,4.63,4.63,0,0,1-.63-.31,1.72,1.72,0,0,1-.55-.52,1.25,1.25,0,0,1-.19-.7,1.19,1.19,0,0,1,.22-.71,1.6,1.6,0,0,1,.58-.51,2.06,2.06,0,0,1,.7-.23,4.93,4.93,0,0,1,.75-.06h.78l.06.72-.33,0a6.46,6.46,0,0,0-.65,0,2.42,2.42,0,0,0-.47.05,1.7,1.7,0,0,0-.38.12.79.79,0,0,0-.33.29.66.66,0,0,0-.1.32.57.57,0,0,0,.14.37,1.64,1.64,0,0,0,.33.26c.15.09.35.19.6.31l.56.28a2,2,0,0,1,.57.53A1.19,1.19,0,0,1,329,122.46Z" style="fill:#313131"/><path d="M333.44,123.36l-.1.69h-.44a2.6,2.6,0,0,1-1.67-.46,1.71,1.71,0,0,1-.56-1.41c0-.39,0-.82,0-1.27s0-1,0-1.7h-.9v-.63h.95v-1.27h.77v1.27h1.93v.63h-1.93v.67c0,.38,0,.65,0,.83v1.33a1.24,1.24,0,0,0,.37,1,1.79,1.79,0,0,0,1.16.31h.41Z" style="fill:#313131"/><path d="M336.11,119.75H335v-1.14h1.08Zm0,4.28H335v-1.14h1.08Z" style="fill:#313131"/><path d="M341.82,123.53a1.65,1.65,0,0,1-.3,1,2.31,2.31,0,0,1-.88.73,5,5,0,0,1-1.05.35,6.94,6.94,0,0,1-1.41.11h-.45l-.1-.71h.53a7.06,7.06,0,0,0,.93,0,3.85,3.85,0,0,0,.8-.17,2,2,0,0,0,.77-.44,1,1,0,0,0,.27-.73.86.86,0,0,0-.28-.65,2.1,2.1,0,0,0-1.14-.47,4.44,4.44,0,0,0-.55,0h-.4l-.1-.66a3.5,3.5,0,0,0,1.54-.43,1,1,0,0,0,.53-.9,1,1,0,0,0-.19-.64,1.28,1.28,0,0,0-.54-.38,2.74,2.74,0,0,0-.58-.14,4.82,4.82,0,0,0-.65,0h-.48l.14-.72h.27a8.33,8.33,0,0,1,1,.06,3.12,3.12,0,0,1,.92.27,1.74,1.74,0,0,1,.7.54,1.41,1.41,0,0,1,.26.88,1.55,1.55,0,0,1-.36,1,2.38,2.38,0,0,1-.91.65v0a2.59,2.59,0,0,1,1.22.53A1.33,1.33,0,0,1,341.82,123.53Z" style="fill:#313131"/><path d="M348.63,121.33a3.26,3.26,0,0,1-.22,1.18,2.6,2.6,0,0,1-.61.92,2.71,2.71,0,0,1-.89.57,3.12,3.12,0,0,1-2.2,0,2.57,2.57,0,0,1-.88-.57,2.82,2.82,0,0,1-.61-.94,3.16,3.16,0,0,1-.21-1.17,3.12,3.12,0,0,1,.19-1.13,2.65,2.65,0,0,1,.57-.9,2.39,2.39,0,0,1,.89-.61,3,3,0,0,1,1.16-.22,3.06,3.06,0,0,1,1.15.21,2.44,2.44,0,0,1,.87.59,2.49,2.49,0,0,1,.58.91A3,3,0,0,1,348.63,121.33Zm-.87,0a2.93,2.93,0,0,0-.16-1,2.11,2.11,0,0,0-.46-.75,1.56,1.56,0,0,0-.58-.39,1.78,1.78,0,0,0-.74-.14,1.87,1.87,0,0,0-.78.15,1.94,1.94,0,0,0-.54.38,2.08,2.08,0,0,0-.46.72,2.66,2.66,0,0,0-.16.92,2.63,2.63,0,0,0,.16,1,2,2,0,0,0,.49.76,1.92,1.92,0,0,0,.56.36,1.83,1.83,0,0,0,.71.13,1.9,1.9,0,0,0,.73-.13,1.68,1.68,0,0,0,.57-.36,2.29,2.29,0,0,0,.49-.73A2.46,2.46,0,0,0,347.76,121.38Z" style="fill:#313131"/><path d="M355.46,121.33a3.06,3.06,0,0,1-.22,1.18,2.47,2.47,0,0,1-.61.92,2.61,2.61,0,0,1-.89.57,3.07,3.07,0,0,1-1.1.2,3,3,0,0,1-1.09-.2,2.48,2.48,0,0,1-.88-.57,2.7,2.7,0,0,1-.62-.94,3.16,3.16,0,0,1-.21-1.17,3.11,3.11,0,0,1,.2-1.13,2.63,2.63,0,0,1,.56-.9,2.39,2.39,0,0,1,.89-.61,3,3,0,0,1,1.16-.22,3.06,3.06,0,0,1,1.15.21,2.35,2.35,0,0,1,.87.59,2.65,2.65,0,0,1,.59.91A3.24,3.24,0,0,1,355.46,121.33Zm-.87,0a2.69,2.69,0,0,0-.16-1,2.24,2.24,0,0,0-.45-.75,1.74,1.74,0,0,0-.58-.39,2.06,2.06,0,0,0-1.52,0,1.85,1.85,0,0,0-.55.38,1.92,1.92,0,0,0-.45.72,2.67,2.67,0,0,0-.17.92,2.63,2.63,0,0,0,.16,1,1.9,1.9,0,0,0,.5.76,1.75,1.75,0,0,0,.55.36,1.87,1.87,0,0,0,.71.13,1.9,1.9,0,0,0,.73-.13,1.68,1.68,0,0,0,.57-.36,2.13,2.13,0,0,0,.49-.73A2.46,2.46,0,0,0,354.59,121.38Z" style="fill:#313131"/><path d="M362.29,121.33a3.06,3.06,0,0,1-.22,1.18,2.47,2.47,0,0,1-.61.92,2.52,2.52,0,0,1-.89.57,3.07,3.07,0,0,1-1.1.2,3,3,0,0,1-1.09-.2,2.48,2.48,0,0,1-.88-.57,2.85,2.85,0,0,1-.62-.94,3.16,3.16,0,0,1-.21-1.17,3.11,3.11,0,0,1,.2-1.13,2.79,2.79,0,0,1,.56-.9,2.48,2.48,0,0,1,.89-.61,3,3,0,0,1,1.16-.22,3.06,3.06,0,0,1,1.15.21,2.48,2.48,0,0,1,.88.59,2.62,2.62,0,0,1,.58.91A3.24,3.24,0,0,1,362.29,121.33Zm-.87,0a2.69,2.69,0,0,0-.16-1,2.09,2.09,0,0,0-.45-.75,1.74,1.74,0,0,0-.58-.39,1.78,1.78,0,0,0-.74-.14,1.81,1.81,0,0,0-.78.15,1.85,1.85,0,0,0-.55.38,1.92,1.92,0,0,0-.45.72,2.67,2.67,0,0,0-.17.92,2.87,2.87,0,0,0,.16,1,2,2,0,0,0,.5.76,1.79,1.79,0,0,0,1.27.49,1.88,1.88,0,0,0,.72-.13,1.68,1.68,0,0,0,.57-.36,2,2,0,0,0,.49-.73A2.46,2.46,0,0,0,361.42,121.38Z" style="fill:#313131"/><path d="M366.74,116.83c-.23.61-.52,1.38-.86,2.31s-.63,1.68-.84,2.27c-.45,1.23-.84,2.32-1.17,3.28s-.52,1.51-.57,1.64l-.68-.25.6-1.64c.34-.93.74-2,1.18-3.23.23-.66.51-1.43.83-2.29s.59-1.65.83-2.34Z" style="fill:#313131"/><path d="M371.28,121v2.17c0,.56,0,.86,0,.9l-.5,0c-.3,0-.68,0-1.15,0a5.24,5.24,0,0,1-.88-.08,3.33,3.33,0,0,1-.77-.24,1.81,1.81,0,0,1-.7-.54,1.34,1.34,0,0,1-.26-.82,1.32,1.32,0,0,1,.31-.89,2.18,2.18,0,0,1,.87-.6,4.56,4.56,0,0,1,.94-.26,10.74,10.74,0,0,1,1.33-.18,1.65,1.65,0,0,0-.21-.69,1.15,1.15,0,0,0-.53-.4,2,2,0,0,0-.52-.14,4.61,4.61,0,0,0-.68,0h-.41l-.46,0,.09-.72.32,0h.65a4.33,4.33,0,0,1,1.13.13,1.89,1.89,0,0,1,.82.43,1.7,1.7,0,0,1,.47.69A3.62,3.62,0,0,1,371.28,121Zm-.82,1.29v-1.1c-.16,0-.44,0-.83.09a5.07,5.07,0,0,0-1,.24,1.5,1.5,0,0,0-.53.34.72.72,0,0,0-.23.56.83.83,0,0,0,.19.58,1.34,1.34,0,0,0,.55.35,3.1,3.1,0,0,0,.58.13c.21,0,.44,0,.67,0h.6v-1.21Z" style="fill:#313131"/><path d="M376.34,119.23a6.66,6.66,0,0,0-.9.29c-.41.15-.88.36-1.41.61v.54c0,.32,0,.61,0,.89s0,.92,0,1.5,0,.91,0,1h-.85c0-.06,0-.26,0-.6s0-.92,0-1.75v-1.39c0-.6,0-1.17,0-1.7H374v.82h0a11.19,11.19,0,0,1,1.2-.6,6.25,6.25,0,0,1,.94-.34Z" style="fill:#313131"/><path d="M380.39,123.36l-.1.69h-.44a2.6,2.6,0,0,1-1.67-.46,1.71,1.71,0,0,1-.56-1.41c0-.39,0-.82,0-1.27s0-1,0-1.7h-.91v-.63h.95v-1.27h.78v1.27h1.93v.63h-1.93v.67c0,.38,0,.65,0,.83v1.33a1.24,1.24,0,0,0,.37,1,1.79,1.79,0,0,0,1.16.31h.41Z" style="fill:#313131"/><path d="M382.7,117.55h-.94v-.92h.94Zm-.05,6.48h-.85c0-.06,0-.41,0-1.06s0-1.18,0-1.6,0-.78,0-1.22,0-1,0-1.56h.85c0,.52,0,1,0,1.45s0,.85,0,1.2c0,.84,0,1.51,0,2S382.65,124,382.65,124Z" style="fill:#313131"/><path d="M388.25,123.33l-.06.72h-.3a5.88,5.88,0,0,1-1.29-.13,4.31,4.31,0,0,1-1.08-.39,2.7,2.7,0,0,1-1-.94,2.35,2.35,0,0,1-.37-1.3,2.25,2.25,0,0,1,.33-1.19,2.92,2.92,0,0,1,.87-.88,3.82,3.82,0,0,1,1.16-.48,5.87,5.87,0,0,1,1.39-.16h.23l0,.72H388a6,6,0,0,0-1,.07,4,4,0,0,0-.82.24,1.81,1.81,0,0,0-.84.68,1.68,1.68,0,0,0-.31,1,1.86,1.86,0,0,0,.29,1.06,2,2,0,0,0,.78.66,3,3,0,0,0,.85.26,5.33,5.33,0,0,0,1,.08h.33Z" style="fill:#313131"/><path d="M390.57,124h-.84s0-.57,0-1.57,0-1.84,0-2.5c0-.43,0-1,0-1.62s0-1.37,0-2.18h.84c0,.55,0,1.19,0,1.91s0,1.34,0,1.84c0,1.08,0,2,0,2.84S390.57,124,390.57,124Z" style="fill:#313131"/><path d="M396.79,121.11h-3.88a2.31,2.31,0,0,0,.24,1,2,2,0,0,0,.72.79,2.36,2.36,0,0,0,.71.29,3.88,3.88,0,0,0,1,.1h.56l.31,0-.09.71-.29,0h-.57a4.45,4.45,0,0,1-1.49-.22,2.71,2.71,0,0,1-1.05-.62,2.74,2.74,0,0,1-.84-2,3.17,3.17,0,0,1,.19-1.1,3,3,0,0,1,.54-.92,2.26,2.26,0,0,1,.79-.57,2.55,2.55,0,0,1,1-.19,2.39,2.39,0,0,1,.88.15,1.8,1.8,0,0,1,.67.45,2.16,2.16,0,0,1,.49.85A3.81,3.81,0,0,1,396.79,121.11Zm-.83-.6a1.76,1.76,0,0,0-.46-1,1.26,1.26,0,0,0-1-.38,1.41,1.41,0,0,0-1,.38,2.06,2.06,0,0,0-.56,1Z" style="fill:#313131"/><path d="M399.19,124h-1.07v-1.14h1.07Z" style="fill:#313131"/><path d="M405.52,124h-.85c0-.11,0-.43,0-1s0-.89,0-1.07,0-.46,0-.82v-.8a1.49,1.49,0,0,0-.24-.88.94.94,0,0,0-.76-.27,2.35,2.35,0,0,0-.79.18,6.72,6.72,0,0,0-1,.5l0,4.13h-.85c0-.14,0-.7,0-1.69s0-1.8,0-2.43c0-.42,0-.94,0-1.58s0-1.35,0-2.17h.85l0,3h0a7.88,7.88,0,0,1,1.25-.6,2.72,2.72,0,0,1,.84-.16,1.47,1.47,0,0,1,1.11.43,1.66,1.66,0,0,1,.41,1.18c0,.45,0,.84,0,1.17v.8c0,.32,0,.7,0,1.12S405.52,123.87,405.52,124Z" style="fill:#313131"/><path d="M410.41,123.36l-.1.69h-.44a2.55,2.55,0,0,1-1.66-.46,1.69,1.69,0,0,1-.57-1.41c0-.39,0-.82,0-1.27s0-1,0-1.7h-.9v-.63h.95v-1.27h.78v1.27h1.92v.63h-1.92c0,.08,0,.3,0,.67s0,.65,0,.83v1.33a1.24,1.24,0,0,0,.38,1,1.77,1.77,0,0,0,1.16.31h.4Z" style="fill:#313131"/><path d="M419.47,124h-.85s0-.29,0-.75v-2.1c0-.37,0-.64,0-.82a1.36,1.36,0,0,0-.25-.9,1,1,0,0,0-.74-.24,2.27,2.27,0,0,0-.7.14,5.24,5.24,0,0,0-.92.46.59.59,0,0,0,0,.11v.21c0,.29,0,.58,0,.88v.85c0,.6,0,1.1,0,1.5s0,.62,0,.66h-.84s0-.26,0-.65,0-.86,0-1.4c0-.18,0-.45,0-.81v-.8a3.1,3.1,0,0,0,0-.45.82.82,0,0,0-.14-.37.71.71,0,0,0-.29-.25,1.26,1.26,0,0,0-.5-.08,1.87,1.87,0,0,0-.7.17,7.58,7.58,0,0,0-.93.51v.68c0,.4,0,.72,0,1,0,.43,0,.94,0,1.53s0,.91,0,1h-.85s0-.24,0-.63,0-1,0-1.93v-1.18c0-.5,0-1.06,0-1.7h.84v.62h0a6,6,0,0,1,.9-.51,2.36,2.36,0,0,1,1-.25,1.56,1.56,0,0,1,.87.22,1.22,1.22,0,0,1,.51.55h0a8.14,8.14,0,0,1,1.13-.58,2.59,2.59,0,0,1,.89-.19,1.5,1.5,0,0,1,1.15.43,1.6,1.6,0,0,1,.42,1.17c0,.38,0,.69,0,1s0,.54,0,.83c0,.6,0,1.11,0,1.52S419.47,124,419.47,124Z" style="fill:#313131"/><path d="M422.31,124h-.85s0-.57,0-1.57,0-1.84,0-2.5c0-.43,0-1,0-1.62s0-1.37,0-2.18h.85c0,.55,0,1.19,0,1.91s0,1.34,0,1.84c0,1.08,0,2,0,2.84S422.31,124,422.31,124Z" style="fill:#313131"/></g></g></svg>