<svg xmlns="http://www.w3.org/2000/svg" viewBox="0 0 480 280"><title>illustration-refactoring</title><g id="main-frame"><rect x="20" y="20" width="440" height="240" rx="5" style="fill:#3c3f41;stroke:#3c3f41;stroke-width:2px"/><path d="M25,20H455a5,5,0,0,1,5,5V43a0,0,0,0,1,0,0H20a0,0,0,0,1,0,0V25A5,5,0,0,1,25,20Z" style="fill:#3c3f41"/><circle cx="33" cy="31" r="5" style="fill:#ee6a5e"/><circle cx="50" cy="31" r="5" style="fill:#f6c250"/><circle cx="66" cy="31" r="5" style="fill:#62ca57"/><path d="M20,43H460a0,0,0,0,1,0,0V255a5,5,0,0,1-5,5H25a5,5,0,0,1-5-5V43A0,0,0,0,1,20,43Z" style="fill:#313131"/><path d="M385,26V36l7.87-5Z" style="fill:#499c54"/><rect x="404" y="27" width="8" height="8" style="fill:#c75450"/><rect x="306.5" y="25.5" width="65" height="11" style="fill:none;stroke:#5e6060;stroke-miterlimit:10"/><rect x="424" y="24" width="1" height="14" style="fill:#515151"/><path d="M446.17,32.54h-2.38V36h-3.58V32.54h-2.38l4.17-4Z" style="fill:#3592c4"/><path d="M437,36h10V26H437Z" style="fill:none"/><rect x="437.83" y="26.21" width="8.33" height="1.25" style="fill:#3592c4"/><polygon points="365 32.5 362 29.5 368 29.5 365 32.5" style="fill:#5e6060"/></g><g id="refactoring"><path d="M21,44H198a0,0,0,0,1,0,0V259a0,0,0,0,1,0,0H26a5,5,0,0,1-5-5V44a0,0,0,0,1,0,0Z" style="fill:#3c3f41"/><polygon points="38 95 33 90 43 90 38 95" style="fill:#bababa"/><polygon points="41 64.5 36 69.5 36 59.5 41 64.5" style="fill:#bababa"/><rect x="50" y="60" width="100" height="10" rx="3" style="fill:#bababa"/><rect x="50" y="87" width="77" height="10" rx="3" style="fill:#bababa"/><rect x="66" y="115" width="77" height="10" rx="3" style="fill:#bababa"/><rect x="66" y="142" width="61" height="10" rx="3" style="fill:#bababa;opacity:0.3"/><rect x="66" y="169" width="96" height="10" rx="3" style="fill:#bababa"/><rect x="266" y="87" width="138" height="15" rx="3" style="fill:#bababa;opacity:0.2"/><rect x="266" y="123" width="138" height="15" rx="3" style="fill:#bababa;opacity:0.2"/><rect x="266" y="159" width="138" height="15" rx="3" style="fill:#bababa;opacity:0.2"/><rect x="266" y="195" width="138" height="15" rx="3" style="fill:#bababa;opacity:0.2"/><polygon points="41 204.5 36 209.5 36 199.5 41 204.5" style="fill:#bababa"/><rect x="50" y="200" width="93" height="10" rx="3" style="fill:#bababa"/><polygon points="41 232.5 36 237.5 36 227.5 41 232.5" style="fill:#bababa"/><rect x="50" y="228" width="112" height="9" rx="3" style="fill:#bababa"/><rect x="45.5" y="81.5" width="87" height="21" style="fill:none;stroke:#ff6464;stroke-miterlimit:10;opacity:0.3"/><rect x="174.5" y="131.5" width="74" height="15" rx="3" style="fill:#bababa;stroke:#ff6464;stroke-miterlimit:10;opacity:0.6"/><path d="M258.89,159h-6.63l3.49,8.5a1.17,1.17,0,0,1-.59,1.5l-3.08,1.34a1.11,1.11,0,0,1-1.46-.61l-3.31-8.07-5.42,5.57a1.1,1.1,0,0,1-1.89-.8V139.57a1.11,1.11,0,0,1,1.89-.8l17.78,18.28a1.15,1.15,0,0,1-.78,1.95Z" style="fill:#fff;stroke:#2d2d2d;stroke-miterlimit:10;stroke-width:2px;opacity:0.6"/><rect x="50" y="218" width="93" height="1" style="fill:#ff6464;opacity:0.3"/><g style="opacity:0.3"><path d="M148.86,94.06A101,101,0,0,1,182,102c15.29,6.57,26,25,26,25" style="fill:none;stroke:#ff6464;stroke-miterlimit:10"/><polygon points="150.79 97.08 140 94 150.88 91.27 150.79 97.08" style="fill:#ff6464"/></g><g style="opacity:0.3"><path d="M208,152s0,13-15,33c-10,13.32-25.75,23.54-35.16,28.88" style="fill:none;stroke:#ff6464;stroke-miterlimit:10"/><polygon points="158.2 210.34 150 218 160.93 215.47 158.2 210.34" style="fill:#ff6464"/></g><g style="opacity:0.75"><path d="M213.46,113l-1,.21-1.31-7.13h0c-.16.35-.53,1.14-1.1,2.39s-1.12,2.5-1.66,3.76h-.87c-.5-1.16-1.06-2.42-1.67-3.77l-1.07-2.37h0q0,.17-.51,2.43c-.32,1.51-.62,3.07-.91,4.68l-1-.17c.43-1.83.82-3.64,1.19-5.43l.6-2.91,1-.14q.07.13.9,2c.56,1.26,1.21,2.72,2,4.37h0q.87-1.94,1.83-4.14c.65-1.46,1-2.22,1-2.27l.95.07c0,.09.19,1,.53,2.78S213.05,111,213.46,113Z" style="fill:#fff"/><path d="M220.84,109.89a4,4,0,0,1-.26,1.41,3.25,3.25,0,0,1-.76,1.15,3.12,3.12,0,0,1-.93.61,3.25,3.25,0,0,1-2.3,0,2.81,2.81,0,0,1-1-.61,3.11,3.11,0,0,1-.75-1.14,3.82,3.82,0,0,1-.26-1.43,3.9,3.9,0,0,1,.22-1.35,3.22,3.22,0,0,1,.7-1.1,3.18,3.18,0,0,1,1-.68,3.06,3.06,0,0,1,1.2-.24,3,3,0,0,1,1.19.22,2.85,2.85,0,0,1,1,.66,3.36,3.36,0,0,1,.72,1.12A4.08,4.08,0,0,1,220.84,109.89Zm-1,0a3.54,3.54,0,0,0-.2-1.16,2.34,2.34,0,0,0-.6-1,1.56,1.56,0,0,0-.59-.37,1.85,1.85,0,0,0-.7-.13,1.75,1.75,0,0,0-.76.14,1.78,1.78,0,0,0-.61.44,2.17,2.17,0,0,0-.53.87,3.21,3.21,0,0,0-.2,1.11,3.54,3.54,0,0,0,.2,1.19,2.27,2.27,0,0,0,.63.93,1.84,1.84,0,0,0,.57.34,2,2,0,0,0,.69.12,2,2,0,0,0,.75-.14,1.65,1.65,0,0,0,.6-.41,2.31,2.31,0,0,0,.55-.89A3.06,3.06,0,0,0,219.83,109.93Z" style="fill:#fff"/><path d="M228,106.92l-1.76,4-1,2.18h-.74s-.33-.74-.93-2.06-1.21-2.68-1.82-4.06l.93-.42,2.23,5.29h0l2.17-5.28Z" style="fill:#fff"/><path d="M234.47,109.65h-4.59a2.73,2.73,0,0,0,.29,1.24,2.36,2.36,0,0,0,.85.93,3.16,3.16,0,0,0,.84.35,4.6,4.6,0,0,0,1.13.12l.66,0,.37,0-.11.85-.34,0-.67,0a5.23,5.23,0,0,1-1.77-.27,3.36,3.36,0,0,1-1.23-.72,3.2,3.2,0,0,1-.7-1,3,3,0,0,1-.29-1.34,3.83,3.83,0,0,1,.21-1.31,3.71,3.71,0,0,1,.65-1.09,2.39,2.39,0,0,1,.93-.66,2.89,2.89,0,0,1,1.15-.24,2.82,2.82,0,0,1,1.05.18,2.06,2.06,0,0,1,.79.54,2.8,2.8,0,0,1,.58,1A4.86,4.86,0,0,1,234.47,109.65Zm-1-.71a2.12,2.12,0,0,0-.54-1.23,1.52,1.52,0,0,0-1.15-.45,1.64,1.64,0,0,0-1.18.45,2.44,2.44,0,0,0-.66,1.23Z" style="fill:#fff"/></g><g style="opacity:0.75"><path d="M210.76,180.59l-.79.66q-.15-.15-1-1.11c-.57-.63-1.44-1.63-2.62-3v-.06a3,3,0,0,0,.65-.27,3.57,3.57,0,0,0,.67-.46,2.26,2.26,0,0,0,.41-.54,1.71,1.71,0,0,0,.17-.85,1.41,1.41,0,0,0-.25-.84,1.57,1.57,0,0,0-.71-.52,2.58,2.58,0,0,0-.78-.16l-.75,0h-.52c0,.81,0,1.52,0,2.13v1.3c0,.58,0,1.37,0,2.37s0,1.62,0,1.87h-1c0-.25,0-.75,0-1.48s0-1.63,0-2.72v-1.18q0-.85,0-3.12h1.68a9.2,9.2,0,0,1,1.07.06,3.66,3.66,0,0,1,1,.27,2.23,2.23,0,0,1,1,.79,2,2,0,0,1,.37,1.21,2.12,2.12,0,0,1-.55,1.5,4.69,4.69,0,0,1-1,.89v0c.58.68,1.22,1.38,1.91,2.1Z" style="fill:#fff"/><path d="M217.08,177.65h-4.59a2.86,2.86,0,0,0,.29,1.24,2.36,2.36,0,0,0,.85.93,3.16,3.16,0,0,0,.84.35,4.6,4.6,0,0,0,1.13.12l.66,0,.38,0-.12.85-.33,0h-.68a5.28,5.28,0,0,1-1.77-.26,3.25,3.25,0,0,1-1.23-.73,3,3,0,0,1-.7-1,3.05,3.05,0,0,1-.29-1.33,3.6,3.6,0,0,1,.22-1.31,3.67,3.67,0,0,1,.64-1.09,2.39,2.39,0,0,1,.93-.66,2.89,2.89,0,0,1,1.15-.24,2.82,2.82,0,0,1,1,.18,2.18,2.18,0,0,1,.8.54,2.65,2.65,0,0,1,.57,1A4.54,4.54,0,0,1,217.08,177.65Zm-1-.71a2.12,2.12,0,0,0-.54-1.23,1.52,1.52,0,0,0-1.15-.45,1.64,1.64,0,0,0-1.18.45,2.44,2.44,0,0,0-.66,1.23Z" style="fill:#fff"/><path d="M224.4,177.89a4,4,0,0,1-.26,1.41,3.25,3.25,0,0,1-.76,1.15,3.12,3.12,0,0,1-.93.61,3.25,3.25,0,0,1-2.3,0,2.85,2.85,0,0,1-1-.61,3.08,3.08,0,0,1-.74-1.14,3.83,3.83,0,0,1-.27-1.43,3.9,3.9,0,0,1,.23-1.35,3.07,3.07,0,0,1,.7-1.1,3,3,0,0,1,2.18-.92,3.09,3.09,0,0,1,1.2.22,2.85,2.85,0,0,1,1,.66,3.18,3.18,0,0,1,.71,1.12A3.85,3.85,0,0,1,224.4,177.89Zm-1,0a3.57,3.57,0,0,0-.19-1.16,2.34,2.34,0,0,0-.6-1,1.64,1.64,0,0,0-.59-.37,1.87,1.87,0,0,0-.71-.13,1.81,1.81,0,0,0-.76.14,2,2,0,0,0-.61.43,2.55,2.55,0,0,0-.53.88,3.2,3.2,0,0,0-.19,1.11,3.54,3.54,0,0,0,.2,1.19,2.27,2.27,0,0,0,.63.93,1.84,1.84,0,0,0,.57.34,2,2,0,0,0,1.43,0,1.6,1.6,0,0,0,.61-.41,2.31,2.31,0,0,0,.55-.89A3,3,0,0,0,223.38,177.93Z" style="fill:#fff"/><path d="M229.86,175.43a10.51,10.51,0,0,0-1.07.34c-.48.18-1,.42-1.66.72v.63c0,.38,0,.73,0,1.06,0,.5,0,1.09,0,1.78s0,1.06,0,1.14h-1c0-.07,0-.31,0-.71s0-1.09,0-2.06c0-.4,0-1,0-1.65s0-1.38,0-2h1v1h0a14.46,14.46,0,0,1,1.42-.71,7.45,7.45,0,0,1,1.11-.4Z" style="fill:#fff"/><path d="M236,181.2h-.56a13.12,13.12,0,0,1-1.88-.1,4.77,4.77,0,0,1-1.33-.42A3.05,3.05,0,0,1,231,179.6a2.66,2.66,0,0,1-.44-1.49,3.06,3.06,0,0,1,.49-1.71,3.28,3.28,0,0,1,1.41-1.17,5.66,5.66,0,0,1,1.24-.38,7.14,7.14,0,0,1,1.37-.13l0-2.93h1c0,.09,0,.68,0,1.78s0,2.22,0,3.34c0,.9,0,1.7,0,2.42S236,180.68,236,181.2Zm-1-4.46v-1.18a6.61,6.61,0,0,0-1.2.11,4.36,4.36,0,0,0-1,.29,2.23,2.23,0,0,0-1.33,2.11,1.84,1.84,0,0,0,.34,1.12,2.45,2.45,0,0,0,.83.74,4.13,4.13,0,0,0,1,.35,5.4,5.4,0,0,0,1.15.12H235v-1C235.05,178.85,235.05,178,235.05,176.74Z" style="fill:#fff"/><path d="M243.31,177.65h-4.59a2.86,2.86,0,0,0,.28,1.24,2.46,2.46,0,0,0,.86.93,3.16,3.16,0,0,0,.84.35,4.6,4.6,0,0,0,1.13.12l.66,0,.37,0-.11.85-.34,0h-.67a5.24,5.24,0,0,1-1.77-.26,3.25,3.25,0,0,1-1.23-.73,3,3,0,0,1-.7-1,2.92,2.92,0,0,1-.29-1.33,3.83,3.83,0,0,1,.21-1.31,3.71,3.71,0,0,1,.65-1.09,2.39,2.39,0,0,1,.93-.66,2.89,2.89,0,0,1,1.15-.24,2.82,2.82,0,0,1,1.05.18,2.14,2.14,0,0,1,.79.54,2.8,2.8,0,0,1,.58,1A4.86,4.86,0,0,1,243.31,177.65Zm-1-.71a2.05,2.05,0,0,0-.53-1.23,1.52,1.52,0,0,0-1.15-.45,1.64,1.64,0,0,0-1.18.45,2.44,2.44,0,0,0-.66,1.23Z" style="fill:#fff"/><path d="M248.7,175.43a9.77,9.77,0,0,0-1.07.34c-.48.18-1,.42-1.66.72,0,0,0,.25,0,.63v1.06c0,.5,0,1.09,0,1.78s0,1.06,0,1.14h-1c0-.07,0-.31,0-.71s0-1.09,0-2.06c0-.4,0-1,0-1.65s0-1.38,0-2h1v1h0a14.46,14.46,0,0,1,1.42-.71,7.91,7.91,0,0,1,1.12-.4Z" style="fill:#fff"/></g></g></svg>