<?xml version="1.0" encoding="utf-8"?>
<!-- Generator: Adobe Illustrator 23.0.1, SVG Export Plug-In . SVG Version: 6.00 Build 0)  -->
<svg version="1.1" id="Layer_1" xmlns="http://www.w3.org/2000/svg" xmlns:xlink="http://www.w3.org/1999/xlink" x="0px" y="0px"
	 viewBox="0 0 320 150" style="enable-background:new 0 0 320 150;" xml:space="preserve">
<g transform="translate(0.000000,201.000000) scale(0.100000,-0.100000)">
	<path id="node1" style="fill:#CE3334;" d="M2838.9,1942c-67.9-19.4-229.3-65.4-276.5-77.9c-24.6-6.3-65.5-18.6-90.6-26.4
		c-25-7.7-69.9-19.5-98.9-26.6c-29.8-6.5-74.9-19-101.2-27.4c-25.3-8.4-52.2-15.5-58.4-15.7c-6.2-0.2-33.1-7.3-59.4-15.7
		c-25.3-8.4-52.2-15.5-58.4-15.7c-6.2-0.2-29.8-6.5-54-14.8c-23-7.7-74.8-21.7-114.8-31.3c-40.3-10.3-87.4-22.8-106.6-28.3
		c-29.7-9.3-158.7-36.9-235-50.3c-13.2-2.5-28-7.1-32.2-10.7s-18.6-6.8-32.1-7.2c-13.5-0.4-27.9-3.6-32.1-7.2
		c-3.9-2.9-31.1-10.7-59.7-16.4c-52.9-11.4-272.5-71.6-309.9-85.9c-11.5-3.8-27.1-7.8-34.4-8c-7.2-0.2-31.5-8.6-54.3-19
		c-22.8-10.4-48-18.8-56.4-19.1c-9.4-0.3-30-7.2-46.9-15.3s-39.7-15.1-51.2-15.4c-27.1-0.9-213.1-59.3-220.2-69.2
		c-8.2-9.9,50.5-6.7,139.5,7.9c41.2,6.9,85.4,13.1,97.9,13.5c12.5,0.4,44.7,11.1,72.2,23.7c28.6,12.7,57,21.2,65.7,19.4
		c7.7-1.8,35,3.2,61.3,11.6c25.3,8.4,53.2,15.5,60.5,15.7c7.2,0.2,30,7.2,51.2,15.4c21.1,8.2,44.9,15.3,52.2,15.5
		c7.2,0.2,46.7,11.1,87.7,23.6c40.1,13,88.2,25.6,105.8,29c18.3,2.6,36.5,8.1,40.4,11c4.2,3.6,14.4,6.7,22.8,6.9
		c8.4,0.3,43,9,74.9,19c58.1,17.8,162.2,48,205.7,59c12.3,3.2,34.8,9.4,50.7,14.1c15.8,4.7,76.6,21.1,135,36.8
		c58.7,16.4,122.7,33.6,140.8,39c19.2,5.4,69.9,19.5,112.7,31.2c43.8,11.7,94.5,25.8,112.7,31.2c19.4,6.1,80.2,22.6,136.5,38.2
		c56.1,14.9,112.4,30.5,124,34.4c12.7,4.6,52.2,15.5,89.1,25c36.9,9.5,94.5,25.8,128.5,35.9c49,15.4,63,17.2,73.4,10.6
		c20.9-12.4,83.7-171.9,76.8-194.2c-3.3-10.5,1.7-34.5,9.2-53.5c8.7-18.3,14.4-36.8,13.5-39.6c-0.8-2.8,3.5-18.5,10.2-33.5
		c6.4-15.7,10.5-32.8,9-37.6c-1.8-5.6,2.3-22.7,9-37.6c6.4-15.7,11-30.7,10-34.1c-0.8-2.8,4.8-21.2,13-41
		c8.5-19.1,13.3-40.3,11.1-47.3c-3.9-12.6-107.5-51.1-140.8-52.2c-10.4-0.3-22.7-3.5-27.1-7.8c-4.2-3.6-17.8-7.5-28.1-7.8
		c-11.5-0.4-26.9-7.1-34.3-14.2c-19.9-17.9,8.5-22.5,62.3-11.8c56.1,11.5,177.6,51.3,190.2,62c20.8,17.2,29.4,65.1,17.3,92.3
		c-6.7,15-11,30.7-9.4,36.2c1.5,4.9-1.3,25.5-7.8,44.6c-6.2,19.8-12.9,41.7-14.6,49.2c-1.8,7.5-10.5,32.8-17.9,55.3
		c-7.2,23.3-12.8,45.1-11.5,49.3c1.3,4.2-3.5,18.5-10.6,32.1c-7.1,13.6-12.1,27.2-11,30.7c1.3,4.2-4.3,22.7-12.6,42.4
		c-8.5,19.1-13.5,39.6-11.9,44.5c1.5,4.9-0.2,15.9-4.7,24.7c-14.9,32-16.8,38.8-13.4,49.9c1.9,6.3-3.1,19.9-12.1,30.6
		C2943.3,1959.9,2904.6,1961.4,2838.9,1942z"/>
	<path id="node8" style="fill:#CE3334;" d="M387.3,1260.8c-12.3-3.2-67.9-19.4-124.1-35s-118.5-33.5-138-39.6
		c-61.2-17.8-68.4-47.8-35.1-139.8c5.9-17.7,13.7-38.9,15.5-46.4c2.8-7.5,15.9-45,29.8-83.2c13.9-38.2,24.7-73.1,23.4-77.2
		c-1.3-4.2,0.3-12.4,3.4-19.2c6.7-15,34.8-96.8,46.4-139.3c13-44.4,29.9-63.2,52.4-57c10.2,3.1,20.3,12.4,23.3,22.1
		c11.5,37-6.2,166.1-28.7,206.8c-7.1,13.6-12,27.9-10.6,32.1c1.3,4.2-12.6,42.4-30.7,83.9c-17.8,42.2-32.3,78.3-31.8,80.4
		c0.7,2.1-11.9,24.5-27.1,48.8c-16.2,24.3-27.1,45.4-24.8,46.1c19.1,8.2,137.2,43.7,145.5,44c6.2,0.2,33.1,7.3,60.3,15.1
		c26.3,8.4,83.9,24.8,126.7,36.5c43.6,11.1,83.4,23.4,89.8,27.1C568.9,1274.9,418,1270.1,387.3,1260.8z"/>
	<path id="node11" style="fill:#CE3334;" d="M2586,1242.5c-4.5-4.3-15.9-8.1-24.2-8.3c-8.4-0.3-40.9-8.9-74.1-19.6
		c-32.2-10.7-65.7-19.4-73-19.6c-7.2-0.2-31.1-7.2-54.3-15.6s-46.9-15.3-54.3-15.6s-40.9-8.9-73-19.6
		c-33.2-10.7-63.6-19.3-67.9-19.4c-5.2-0.2-30-7.2-56.3-15.6c-25.3-8.4-52.2-15.5-58.4-15.7c-5.2-0.2-19.5-3.4-31.1-7.2
		c-10.5-3.8-54.7-16.9-98.5-28.7c-42.8-11.7-96.3-27.9-117.1-35.5c-20.8-7.6-46.5-13.9-58-14.3c-10.4-0.3-23.8-3.6-28.1-7.8
		c-4.2-3.6-15.7-7.4-24-7.7c-8.4-0.3-40.9-8.9-74.1-19.6c-32.2-10.7-65.7-19.4-73-19.6c-7.2-0.2-35-6.6-62.4-15.1
		c-26.1-7.8-70.1-20.2-98.3-28c-28.1-7.8-71.1-20.2-96-27.2c-25-7.7-57.6-16.3-73-19.6c-15.4-3.2-52.6-13.4-84.6-23.4
		c-30.9-10-86.2-25.6-122.9-34.3c-35.9-9.4-86.6-23.5-112.7-31.2c-24.9-7-69.1-20.2-97.3-28c-28.1-7.8-65.3-18-84.6-23.4
		c-18.1-5.4-51.8-14.1-73-19.6c-21.2-5.5-44-12.5-51.2-15.4c-5.8-2.2-34.1-10.1-61.5-15.8c-49.8-11.2-79.1-26-85.3-42.8
		c-6-19.5,46.6-15.8,142.2,10.1c12.3,3.2,48,11.9,77.8,18.4c31.1,7.2,97,23.8,148.4,36.5c51.5,13.4,116.4,30,143.1,36.4
		c27.7,6.4,70.7,18.8,95,27.2c25.3,8.4,50.1,15.4,56.3,15.6c6.2,0.2,33.1,7.3,58.4,15.7c26.3,8.4,55.3,15.6,64.6,15.9
		c10.4,0.3,32.5,8.6,51.1,18.9s44.9,18.7,58.5,19.2c13.5,0.4,28.9,3.7,33.4,8c4.5,4.3,19.9,7.5,33.4,8c13.5,0.5,28.9,3.7,33.4,8
		c4.2,3.6,17.8,7.5,29.3,7.8c10.4,0.3,28.9,3.7,40.5,7.5c32.2,10.7,70.8,22.3,166.1,47.5c49.5,13.3,107.5,31.1,128.6,39.3
		c20.9,7.6,45.8,14.6,54,14.8c8.4,0.3,58,14.3,108.6,31.1c51.6,16.8,100.2,30.8,107.5,31.1c7.2,0.2,22.7,3.5,34.2,7.3
		c10.5,3.8,42.4,13.8,70.8,22.3c28.4,8.6,91,27.7,139.1,43.1c49,15.4,91,27.7,93.1,27.8c3.1,0.1,45.1,12.5,94.1,27.9
		c93.6,29.2,120.7,37,154.1,45c12,2.5,20.5,9.6,20.5,16.5c0.7,9-11.5,12.7-42.3,13.1C2615,1249.7,2591.2,1246.1,2586,1242.5z"/>
</g>
<g transform="translate(0.000000,201.000000) scale(0.100000,-0.100000)">
</g>
<text transform="matrix(0.9659 -0.2588 0.2588 0.9659 59.3906 110.6787)" style="fill:#CE3334; font-family:'Chalkduster'; font-size:24px;">NO FUN AT ALL!</text>
</svg>
