<svg id="Layer_1" data-name="Layer 1" xmlns="http://www.w3.org/2000/svg" viewBox="0 0 320 150"><title>stamp-time-consuming</title><path id="node1" d="M283.89,6.8c-6.79,1.94-22.94,6.53-27.66,7.79-2.46.63-6.54,1.86-9.06,2.64s-7,1.95-9.88,2.66-7.5,1.9-10.13,2.74a38.25,38.25,0,0,1-5.84,1.57,40.61,40.61,0,0,0-5.94,1.57,36.91,36.91,0,0,1-5.84,1.56,31.45,31.45,0,0,0-5.4,1.48c-2.31.77-7.48,2.18-11.48,3.14s-8.75,2.28-10.67,2.83c-3,.92-15.87,3.68-23.5,5a9.64,9.64,0,0,0-3.22,1.07,7,7,0,0,1-3.21.72,6.93,6.93,0,0,0-3.22.72,30.21,30.21,0,0,1-6,1.64c-5.3,1.14-27.25,7.16-31,8.59a16.64,16.64,0,0,1-3.44.8,22.71,22.71,0,0,0-5.42,1.9,23,23,0,0,1-5.64,1.9,15.7,15.7,0,0,0-4.69,1.53,16.1,16.1,0,0,1-5.12,1.55c-2.71.09-21.31,5.92-22,6.92s5,.66,14-.8C83.62,65.67,88,65,89.29,65a27.1,27.1,0,0,0,7.22-2.37c2.86-1.27,5.7-2.12,6.57-1.94s3.5-.32,6.13-1.16A37.54,37.54,0,0,1,115.26,58a24.08,24.08,0,0,0,5.12-1.54,26,26,0,0,1,5.22-1.55,82.09,82.09,0,0,0,8.76-2.35c4-1.3,8.83-2.57,10.58-2.9a13.75,13.75,0,0,0,4.05-1.1,4.36,4.36,0,0,1,2.27-.69,50.71,50.71,0,0,0,7.5-1.9c5.8-1.77,16.21-4.79,20.57-5.9,1.23-.32,3.48-.94,5.07-1.41s7.67-2.11,13.51-3.68S210.18,31.57,212,31s7-2,11.27-3.12,9.45-2.58,11.27-3.12,8-2.26,13.64-3.83,11.25-3.05,12.4-3.43,5.22-1.55,8.91-2.5,9.45-2.58,12.85-3.59c4.91-1.54,6.31-1.72,7.34-1.06,2.09,1.24,8.37,17.19,7.68,19.42-.33,1,.17,3.44.91,5.35a13.08,13.08,0,0,1,1.36,4,10.17,10.17,0,0,0,1,3.35,9.13,9.13,0,0,1,.89,3.76,8,8,0,0,0,.9,3.76,10.68,10.68,0,0,1,1,3.42,15.94,15.94,0,0,0,1.31,4.1c.84,1.91,1.32,4,1.1,4.73-.39,1.25-10.74,5.1-14.08,5.21a5,5,0,0,0-2.71.78,5.89,5.89,0,0,1-2.81.78,6.12,6.12,0,0,0-3.44,1.42c-2,1.79.86,2.25,6.23,1.18,5.61-1.15,17.76-5.13,19-6.2,2.08-1.72,2.95-6.51,1.73-9.23a7.81,7.81,0,0,1-.93-3.63,12.12,12.12,0,0,0-.78-4.46c-.62-2-1.29-4.16-1.47-4.92s-1-3.28-1.78-5.53a19.2,19.2,0,0,1-1.15-4.93,7,7,0,0,0-1.07-3.2,7.66,7.66,0,0,1-1.1-3.07c.14-.42-.43-2.27-1.26-4.24s-1.35-4-1.19-4.45a4.06,4.06,0,0,0-.47-2.46c-1.49-3.2-1.68-3.88-1.34-5A4.26,4.26,0,0,0,296,7.22C294.33,5,290.46,4.86,283.89,6.8Z" style="fill:#ce3334"/><path id="node8" d="M38.73,74.92c-1.23.32-6.78,1.94-12.41,3.51s-11.85,3.34-13.8,4C6.4,84.17,5.69,87.16,9,96.37c.58,1.77,1.37,3.89,1.54,4.65s1.59,4.5,3,8.31,2.47,7.31,2.34,7.73a3.27,3.27,0,0,0,.33,1.92c.67,1.5,3.48,9.69,4.64,13.93,1.31,4.44,3,6.32,5.24,5.69a3.66,3.66,0,0,0,2.33-2.21c1.14-3.69-.62-16.61-2.87-20.68a7.12,7.12,0,0,1-1.06-3.2c.14-.42-1.26-4.24-3.07-8.39s-3.23-7.83-3.17-8a30.24,30.24,0,0,0-2.72-4.88c-1.61-2.43-2.71-4.54-2.48-4.61,1.91-.82,13.72-4.38,14.55-4.4a52.19,52.19,0,0,0,6-1.51C36.25,79.84,42,78.2,46.29,77a72.25,72.25,0,0,0,9-2.71C56.89,73.51,41.8,74,38.73,74.92Z" style="fill:#ce3334"/><path id="node11" d="M258.6,76.75a4.32,4.32,0,0,1-2.42.83,49.88,49.88,0,0,0-7.41,2,48.43,48.43,0,0,1-7.29,2,28.69,28.69,0,0,0-5.43,1.56,29.43,29.43,0,0,1-5.43,1.55,50.45,50.45,0,0,0-7.3,2,63.29,63.29,0,0,1-6.79,1.94,44.44,44.44,0,0,0-5.62,1.57,37.83,37.83,0,0,1-5.85,1.56,16,16,0,0,0-3.11.72c-1,.38-5.47,1.7-9.85,2.88s-9.63,2.79-11.7,3.54a25.35,25.35,0,0,1-5.8,1.44,5.26,5.26,0,0,0-2.82.78,4.73,4.73,0,0,1-2.4.76,48.45,48.45,0,0,0-7.41,2,46.44,46.44,0,0,1-7.3,2,40.48,40.48,0,0,0-6.24,1.52c-2.61.77-7,2-9.82,2.8s-7.12,2-9.6,2.72-5.76,1.63-7.3,2-5.26,1.35-8.46,2.35-8.62,2.55-12.29,3.42-8.65,2.35-11.27,3.13-6.91,2-9.72,2.79-6.53,1.8-8.46,2.35-5.17,1.4-7.3,1.95-4.39,1.25-5.11,1.54a60,60,0,0,1-6.16,1.58c-5,1.13-7.91,2.6-8.53,4.28-.6,1.95,4.66,1.58,14.22-1,1.23-.31,4.8-1.19,7.78-1.84s9.7-2.38,14.84-3.65,11.64-3,14.31-3.64,7.07-1.88,9.5-2.72a37.49,37.49,0,0,1,5.63-1.56,39.87,39.87,0,0,0,5.84-1.57,38.18,38.18,0,0,1,6.46-1.59,15,15,0,0,0,5.12-1.89,16.46,16.46,0,0,1,5.85-1.91,6.52,6.52,0,0,0,3.33-.8,6.7,6.7,0,0,1,3.34-.8,6.7,6.7,0,0,0,3.34-.8,6,6,0,0,1,2.93-.78,17.51,17.51,0,0,0,4-.75c3.22-1.07,7.08-2.23,16.62-4.75,4.94-1.33,10.74-3.1,12.86-3.93a26.72,26.72,0,0,1,5.4-1.48,91.32,91.32,0,0,0,10.86-3.11,103.12,103.12,0,0,1,10.74-3.1,15.58,15.58,0,0,0,3.43-.74c1-.37,4.24-1.37,7.08-2.23s9.1-2.77,13.9-4.31,9.11-2.78,9.32-2.79,4.51-1.25,9.41-2.79c9.36-2.92,12.07-3.7,15.41-4.5,1.2-.24,2-1,2-1.65.07-.9-1.15-1.27-4.23-1.31A14,14,0,0,0,258.6,76.75Z" style="fill:#ce3334"/><text transform="translate(46.31 114.25) rotate(-15)" style="isolation:isolate;font-size:24px;fill:#ce3334;font-family:Chalkduster">TIM<tspan x="52.88" y="0" style="letter-spacing:-0.044189453125em">E</tspan><tspan x="69.56" y="0">-</tspan><tspan x="84.07" y="0" style="letter-spacing:-0.019877115885416668em">C</tspan><tspan x="103.05" y="0">ONSUMING</tspan></text></svg>