<?xml version="1.0" encoding="utf-8"?>
<!-- Generator: Adobe Illustrator 24.1.2, SVG Export Plug-In . SVG Version: 6.00 Build 0)  -->
<svg version="1.1" id="Layer_1" xmlns="http://www.w3.org/2000/svg" xmlns:xlink="http://www.w3.org/1999/xlink" x="0px" y="0px"
	 viewBox="0 0 1792 1008" style="enable-background:new 0 0 1792 1008;" xml:space="preserve">
<style type="text/css">
	.st0{opacity:5.000000e-02;}
	.st1{fill:#3C3F41;}
	.st2{opacity:5.000000e-02;fill:#3C3F41;enable-background:new    ;}
	.st3{opacity:8.000000e-02;}
	.st4{opacity:8.000000e-02;fill:#3C3F41;enable-background:new    ;}
	.st5{opacity:0.1;fill-rule:evenodd;clip-rule:evenodd;fill:#3C3F41;fill-opacity:0.48;}
	.st6{opacity:0.3;fill-rule:evenodd;clip-rule:evenodd;fill:#3C3F41;fill-opacity:0.48;}
	.st7{opacity:0.4;fill-rule:evenodd;clip-rule:evenodd;fill:#3C3F41;fill-opacity:0.32;}
	.st8{opacity:0.3;fill-rule:evenodd;clip-rule:evenodd;fill:#3C3F41;fill-opacity:0.72;}
	.st9{opacity:0.2;fill-rule:evenodd;clip-rule:evenodd;fill:#3C3F41;fill-opacity:0.48;}
</style>
<g>
	<g class="st0">
		<polygon class="st1" points="203.4,223.2 164.8,223.2 151.1,401.8 217.1,401.8 		"/>
		<polygon class="st1" points="216.6,410.3 151.6,410.3 164.8,482.6 203.4,482.6 		"/>
		<path class="st1" d="M202.7,528.4l-5.4-41.1l-26.7,0.2l-5.1,36.8c0,0,18.6,20.4,16.8,43.5C182.4,567.9,185.7,542,202.7,528.4z
			 M189.5,528.1c-2.3,2.3-5.9,2.3-8.2,0s-2.3-5.9,0-8.2s5.9-2.3,8.2,0C191.8,522.1,191.8,525.8,189.5,528.1z"/>
		<path class="st1" d="M164.4,216.1H200C181.6,197.6,164.4,216.1,164.4,216.1z"/>
	</g>
	<path class="st2" d="M1557.5,502.7c-1.3,2.7-1.3,5.7,0,8.4l24.4,48.8h2v-38.4c-0.7-0.4-1.4-0.7-2-1.3c-3.7-3.7-3.7-9.6,0-13.3
		c3.7-3.7,9.6-3.7,13.3,0c3.7,3.7,3.7,9.6,0,13.3c-0.6,0.6-1.3,0.9-2,1.3v38.4h2l24.4-48.8c1.3-2.7,1.3-5.7,0-8.4l-10.5-24.2h-40.9
		L1557.5,502.7z M1564.8,357.6l3.4,111.5h40.5l3.4-111.5C1614.1,311,1562.8,311.3,1564.8,357.6z"/>
	<g transform="translate(0.000000,640.000000) scale(0.100000,-0.100000)" class="st3">
		<path class="st1" d="M2601.6,4715.2V2592.8l19-8.8l18.3-8.8l-1.5-148.6c-0.7-128.1,0.7-150.8,11-162.5c9.5-10.2,11.7-30,11.7-97.3
			c0-46.1,2.2-86.4,5.1-89.3c3.7-2.9,4.4-44.6,2.9-92.2c-2.2-84.9-1.5-87.1,16.1-105.4c11-11,31.5-20.5,48.3-23.4
			c24.2-3.7,30-8.1,30-20.5c-0.7-8.1-23.4-148.6-50.5-311.8l-50.5-296.4l80.5-172c98.1-208.6,123.7-273.7,123.7-308.8
			c0-27.1,11.7-38.8,28.5-27.8c5.1,3.7,7.3,12.4,5.1,22c-2.2,8.8-1.5,23.4,2.2,32.2c2.9,8.1,13.2,35.1,22.7,59.3
			c8.8,24.2,54.2,123,99.5,218.8l83.4,174.9l-22,128.8c-40.3,232-81.2,478.6-81.2,488.9c0,5.1,5.1,9.5,11,9.5
			c6.6,0,24.2,6.6,39.5,13.9c25.6,13.2,28.5,17.6,32.2,53.4c6.6,51.2,5.9,108.3-1.5,126.6c-3.7,8.8-2.9,18.3,1.5,24.2
			s6.6,43.2,5.9,91.5c-1.5,75.4,0,83.4,13.2,95.9c14.6,13.2,15.4,22,15.4,165.4V2576l18.3,8.1l18.3,8.8v2122.4"/>
	</g>
	<path class="st4" d="M60.3,237.2H106v253.3l-18.1,57.8c-2.4,7.7-7,7.7-9.5,0l-18.1-57.8V237.2z M93.9,134.1H72.5
		c-6.7,0-12.1,13.9-12.1,30.9v51.6h45.7V165C106.1,147.9,100.6,134.1,93.9,134.1z"/>
	<g transform="translate(0.000000,1280.000000) scale(0.100000,-0.100000)" class="st0">
		<path class="st1" d="M17069.7,11890.3c-113.8,55.8-276.3,63.1-398.2,17.3c-29.7-11.1-64.3-29-80.4-41.5l-11.7-9.1l0.5-393.9
			c2.1-1586.2,29.7-2931.7,71.7-3491.1c17.2-227.5,26.7-287.5,65.3-404.6c39.3-119.3,157.4-429.9,163.7-429.7
			c5.3-0.2,93.9,234.9,136.7,362c43.1,126.9,52.8,164.8,62.6,241c36.3,280.5,54.5,988.3,57.3,2206.5c0.3,262.2,1,274,8.5,250.7
			c9.3-28.6,30.1-63.8,44.6-75.1c27.5-21.4,59.8-7.2,81.1,36.2c23,45.9,45.8,182.8,45,270.2c-1.3,118.5-32.3,392.2-86.8,763.9
			c-13.2,90.1-14.5,109.4-16.1,246.4l-1.3,148.9h-41l-41,0.4l-0.8,13.8c-0.5,7.8-1.3,67.5-1.7,132.9l-1.3,118.5l-16.1,12.1
			C17101.7,11872.8,17083.4,11883.5,17069.7,11890.3z M17158.8,11213.8c50.8-329.5,88.6-657.5,90.6-784l0.8-48.5l-25.1-7
			c-33.8-9.5-62.4-26.3-76.4-44.9l-10.5-14l-1.8,259.1c-1,142.5-2.6,361.2-3.2,486.4c-1.3,203.4-0.8,227.5,6.3,227.9
			c4.5,0.4,7.7-1,8.2-3.3C17148,11283.3,17153,11251,17158.8,11213.8z"/>
	</g>
	<g transform="translate(0.000000,640.000000) scale(0.100000,-0.100000)" class="st0">
		<path class="st1" d="M14663.8,4133.8c-1.9-212-2.6-346-1.7-348.4c1.3-3.4,462.3,10.5,466.8,14.1c1.3,0.9,2.4,29.3,2.6,70.7
			c0.6,67.5,0.3,73.9-14.2,255.6l-14.7,186.7l-35.5,14.2l-35.5,14.2l-69.5-2.5c-93.2-3.3-253.8-11.9-270.3-14.7l-13.2-2.2l-6.8-39
			l-6.9-39.2L14663.8,4133.8z"/>
		<path class="st1" d="M14660.2,3718.2c0.4-3.9,0.7-7.7,1-8.1c0.4-1,207.9-1.7,361.7-1c49.4,0.2,93.6,0.2,98-0.1
			c6.3-0.2,8.4,0.9,9.1,4.9c1.1,6.4,1,27.9-0.3,31.5c-0.3,1.5-20.1,2-43.8,1c-50.1-2-89.7-3.8-343.6-14.3c-45.3-1.9-82.5-4.2-82.4-5
			C14659.7,3726.4,14659.9,3722.3,14660.2,3718.2z"/>
		<path class="st1" d="M14659.5,3634.5c-0.2-13-1.5-244.8-2-393.7c0-14-0.3-48.7-0.4-76.9c-0.2-42.5-1.1-268.3-1.2-342.3
			c0-10.8-0.3-86.7-0.6-168.3c-0.3-81.6-0.3-179.8,0-218.5c0.3-38.7,0.9-106.9,1.2-151.9c2.1-262.5,2.7-330.4,5.4-632
			c0.7-89.7,1.6-181.1,1.8-203.2c0.3-21.8,0.8-40.6,1.1-41.9c0.6-1.1,9.3,0.6,19.5,3.9c18.4,5.8,19,5.8,48.6-1.2l29.7-7.3l10.2-20.9
			c13-26.9,37.2-74,49.3-95.4c7-12.5,16.1-23.6,35.3-43c14.2-14.5,27-27.6,28.5-29.1c3-3.2,55,34.8,61.3,44.9
			c2.1,3.4,18.5,32.6,36.1,64.7c17.9,32.3,33,59.1,33.9,59.8c1.3,1.2,50.3-9.6,83.6-18.3c11.7-3,14.4-2.9,15.1,0.8
			c1,5.3,6.4,96.5,9.5,160.7c1.2,24.7,2.2,63.4,2.3,86.2c0.1,22.8,0.1,95.4,0.2,161.3c0.2,65.9,0.4,172.9,0.4,237.8
			c0.1,64.5,0.3,171.2,0.4,236.9c0.1,65.4,0.3,169.2,0.4,230.3c1,538.6,1.2,1199.7,0.4,1201.7c-0.9,2.6-59-0.4-226.9-11.5
			c-21.3-1.2-84-5.2-139.3-8.6c-55.4-3.6-101.3-6.9-102-7.5C14660.5,3651.8,14659.8,3643.6,14659.5,3634.5z"/>
		<path class="st1" d="M14763.5,1088.6l84.6-218.3l13.5-0.3c7.4-0.1,26.9-1.6,43.5-3.1c16.3-1.7,32.3-3.2,35.4-3.3l5.7-0.3
			l45.2,121.9c71.3,192.3,117.9,320.1,117.4,321.5c-0.3,0.7-15.3,7.5-33.3,14.8c-26,10.7-33.1,12.9-34.1,10.2
			c-2.7-6.6-30.6-57.7-40.8-74.8c-5.8-9.7-12.8-19.1-15.4-21c-6.1-4.1-40.2-39.3-48.9-50.7c-5.5-7-10-8.9-35.1-14.2l-28.8-5.9
			l-20.2,9.8c-38.6,19.2-31.8,9.3-67,95.9l-31.1,76.4l-15.4,6.2l-15.2,5.8l-15.7-18.3c-8.7-10.2-18.7-22-22.3-26.2l-6.5-7.7
			L14763.5,1088.6z"/>
		<path class="st1" d="M14883.3,778.4c8.2-21.3,15.6-37.9,16.4-37.4c1.4,1.4,19.4,48.2,24.6,64.7l3,9.4l-18.2,7.3
			c-17,6.8-18.8,7-29.1,2.8c-6.2-2.4-11.3-5.2-11.4-6C14868.4,818.1,14875.1,799.7,14883.3,778.4z"/>
	</g>
</g>
<path class="st5" d="M277.5,893.6c-10,12.6-24.3,21-40.2,23.7c-7.9,1.3-15.9,1.2-23.7-0.5c-7.8-1.6-15.3-4.7-22-9
	s-12.6-9.8-17.3-16.3c-14.5-19.9-16.5-46.3-5.2-68.2c3.6-7.2,8.6-13.6,14.6-18.9c27-23.9,68.2-21.4,92.1,5.6
	c14.9,16.8,20.1,40.2,13.8,61.7c-0.5,1.7-0.8,3-1,3.9s-0.1,1.4,0.1,1.5s0.5-0.3,1-1.1c0.7-1.2,1.2-2.5,1.5-3.8
	c8.6-28.8-2.7-59.8-27.7-76.4c-32-20.9-74.9-12-95.9,20l0,0c-1.1,1.7-2.1,3.4-3,5.1c-4.1,7.7-6.8,16-7.9,24.6
	c-1.1,8.7-0.6,17.4,1.6,25.9c8.9,35.7,43.8,58.6,80.1,52.4c8.7-1.5,17-4.6,24.5-9.1s14.1-10.4,19.5-17.3c3.3-4.2,5.8-9.1,7.4-14.2
	c0.4-1.3,0.6-2.7,0.7-4.1c0-1-0.2-1.6-0.5-1.7s-0.9,0-1.5,0.7c-0.9,0.9-1.7,1.9-2.4,3C283.5,885.4,280.6,889.6,277.5,893.6"/>
<path class="st6" d="M447.5,973c-1.4,1.8-3.2,3.3-5.1,4.5c-2,1.2-4.1,2-6.4,2.3c-2.3,0.4-4.6,0.3-6.8-0.1c-2.2-0.5-4.4-1.3-6.3-2.6
	c-1.9-1.2-3.6-2.8-5-4.7c-1.3-1.9-2.3-4-2.9-6.2s-0.8-4.5-0.5-6.8s0.9-4.5,2-6.6c4.8-9.2,16.1-12.8,25.2-8c8,4.1,11.9,13.3,9.4,21.9
	c-0.1,0.4-0.2,0.7-0.3,1.1v0.4c0.1-0.1,0.2-0.2,0.3-0.3c0.2-0.3,0.3-0.7,0.4-1.1c2.1-7,0.1-14.6-5.1-19.7c-0.9-0.8-1.8-1.6-2.8-2.2
	c-5.1-3.4-11.6-4.2-17.4-2.2c-2.3,0.8-4.5,2-6.3,3.6c-1.9,1.6-3.5,3.6-4.7,5.8s-2,4.6-2.3,7.1s-0.2,5,0.5,7.4
	c1.2,4.9,4.3,9.2,8.5,12c2.1,1.4,4.5,2.3,6.9,2.9c5,1,10.1,0.1,14.5-2.5c2.2-1.3,4.1-3,5.6-5c1-1.2,1.7-2.6,2.1-4.1
	c0.1-0.4,0.2-0.8,0.2-1.2c0-0.2-0.1-0.4-0.2-0.5s-0.2,0-0.4,0.2c-0.3,0.3-0.5,0.6-0.7,0.9C449.2,970.6,448.4,971.9,447.5,973"/>
<path class="st5" d="M1549.4,850.2c-10.7,1.2-21.4-1.6-30.2-7.8c-4.4-3.1-8.1-6.9-11-11.4s-5-9.5-6.2-14.7
	c-1.1-5.2-1.3-10.6-0.4-15.9c0.9-5.3,2.7-10.4,5.4-15c2.7-4.7,6.2-8.8,10.4-12.1c4.2-3.4,9-5.9,14.1-7.6c23-7.3,47.5,5.5,54.8,28.5
	c6.3,19.9-2.4,41.5-20.7,51.5c-1,0.6-1.8,1-2.3,1.3s-0.7,0.6-0.7,0.7s0.4,0.1,1,0c0.9-0.3,1.7-0.6,2.5-1.1
	c22.2-11.9,30.6-39.5,18.7-61.8c-2.7-5-6.3-9.5-10.6-13.1c-3.1-2.6-6.5-4.8-10.1-6.6c-5.2-2.5-10.8-4-16.5-4.5
	c-5.8-0.5-11.6,0.1-17.1,1.8c-25,7.5-39.1,33.7-31.7,58.7c3,10.1,9.3,18.9,17.9,24.9c9.7,6.8,21.6,9.8,33.4,8.3
	c3.6-0.4,7-1.5,10.2-3.2c0.8-0.4,1.6-1,2.3-1.6c0.5-0.5,0.7-0.8,0.6-1.1s-0.4-0.4-1-0.4c-0.9,0-1.7,0.1-2.6,0.3
	C1556.3,849.2,1552.8,849.8,1549.4,850.2"/>
<path class="st7" d="M394.4,888.8c1.4,0.5,2.6,1.6,3.2,3c0.7,1.4,0.9,3,0.6,4.5c-0.3,1.5-1.2,2.8-2.4,3.8c-1.2,0.9-2.7,1.3-4.2,1.1
	s-2.9-0.9-3.9-2.1c-2.1-2.5-2.1-6.2,0-8.7c1-1.2,2.4-2,4-2.2c0.9-0.1,0.9-0.6,0-0.6c-1.7,0.2-3.3,1-4.5,2.3c-1.2,1.4-1.9,3.1-2,4.9
	c-0.1,1.9,0.5,3.7,1.7,5.2c2.3,3.1,6.7,3.8,9.9,1.5c3.3-2.4,4.4-6.8,2.6-10.5c-0.9-1.8-2.4-3.2-4.2-3.9c-0.6-0.3-1.3-0.3-2-0.2
	c-0.5,0.2-0.7,0.4-0.7,0.6c0,0.5,0.8,0.9,2.1,1.4"/>
<path class="st8" d="M1454.9,951.9c2.5,0.9,4.5,2.7,5.8,5c2.6,4.8,1.1,10.8-3.4,13.9c-2.2,1.5-4.9,2.2-7.6,1.9
	c-6-0.7-10.4-6.1-9.8-12.1c0.2-2.3,1.2-4.5,2.8-6.2c1.9-2.1,4.4-3.4,7.2-3.8c1.6-0.1,1.6-1-0.1-1c-3.1,0.3-5.9,1.6-8.1,3.8
	c-2.2,2.2-3.5,5.2-3.6,8.3c-0.1,3.2,1,6.3,3,8.7c2.1,2.5,5.1,4.2,8.3,4.7c7.4,1.2,14.4-3.9,15.5-11.3c0.5-2.9,0-5.9-1.4-8.5
	c-1.6-3.1-4.3-5.4-7.6-6.6c-1.2-0.5-2.5-0.6-3.7-0.3c-0.8,0.3-1.2,0.7-1.2,1.1C1451.2,950.5,1452.6,951,1454.9,951.9"/>
<path class="st9" d="M157.9,709.3c-1.4,1.8-3.2,3.3-5.1,4.5c-2,1.2-4.1,2-6.4,2.3c-2.3,0.4-4.6,0.3-6.8-0.1
	c-2.2-0.5-4.4-1.3-6.3-2.6c-1.9-1.2-3.6-2.8-5-4.7c-1.3-1.9-2.3-4-2.9-6.2s-0.8-4.5-0.5-6.8s0.9-4.5,2-6.6c4.8-9.2,16.1-12.8,25.2-8
	c8,4.1,11.9,13.3,9.4,21.9c-0.1,0.4-0.2,0.7-0.3,1.1v0.4c0.1-0.1,0.2-0.2,0.3-0.3c0.2-0.3,0.3-0.7,0.4-1.1
	c2.6-8.2-0.7-17.1-7.9-21.8c-5.1-3.4-11.6-4.2-17.4-2.2c-2.3,0.8-4.5,2-6.3,3.6c-1.9,1.6-3.5,3.6-4.7,5.8s-1.9,4.6-2.3,7.1
	c-0.3,2.5-0.2,5,0.5,7.4c1.2,4.9,4.3,9.2,8.5,12c2.1,1.4,4.5,2.3,6.9,2.9c5,1,10.1,0.1,14.5-2.5c2.2-1.3,4.1-3,5.6-5
	c1-1.2,1.7-2.6,2.1-4.1c0.1-0.4,0.2-0.8,0.2-1.2c0-0.2-0.1-0.4-0.2-0.5c-0.1-0.1-0.2,0-0.4,0.2c-0.3,0.3-0.5,0.6-0.7,0.9
	C159.6,707,158.8,708.2,157.9,709.3"/>
<path class="st7" d="M86.7,869c1.4,0.5,2.6,1.6,3.2,3c0.7,1.4,0.9,3,0.6,4.5c-0.3,1.5-1.2,2.8-2.4,3.8c-1.2,0.9-2.7,1.3-4.2,1.1
	s-2.9-0.9-3.9-2.1c-2.1-2.5-2.1-6.2,0-8.7c1-1.2,2.4-2,4-2.2c0.9-0.1,0.9-0.6,0-0.6c-1.7,0.2-3.3,1-4.5,2.3c-1.2,1.4-1.9,3.1-2,4.9
	c-0.1,1.9,0.5,3.7,1.7,5.2c2.3,3.1,6.7,3.8,9.9,1.5c3.3-2.4,4.4-6.8,2.6-10.5c-0.9-1.8-2.4-3.2-4.2-3.9c-0.6-0.3-1.3-0.3-2-0.2
	c-0.5,0.2-0.7,0.4-0.7,0.6c0,0.5,0.8,0.9,2.1,1.4"/>
<path class="st7" d="M1621.8,915.5c1.4,0.5,2.6,1.6,3.2,3c0.7,1.4,0.9,3,0.6,4.5c-0.3,1.5-1.2,2.8-2.4,3.8c-1.2,0.9-2.7,1.3-4.2,1.1
	s-2.9-0.9-3.9-2.1c-2.1-2.5-2.1-6.2,0-8.7c1-1.2,2.4-2,4-2.2c0.9-0.1,0.9-0.6,0-0.6c-1.7,0.2-3.3,1-4.5,2.3c-1.2,1.4-1.9,3.1-2,4.9
	c-0.1,1.9,0.5,3.7,1.7,5.2c2.3,3.1,6.7,3.8,9.9,1.5c3.3-2.4,4.4-6.8,2.6-10.5c-0.9-1.8-2.4-3.2-4.2-3.9c-0.6-0.3-1.3-0.3-2-0.2
	c-0.5,0.2-0.7,0.4-0.7,0.6c0,0.5,0.8,0.9,2.1,1.4"/>
<path class="st6" d="M911,999.1c-1.4,1.8-3.2,3.3-5.1,4.5c-2,1.2-4.1,2-6.4,2.3c-2.3,0.4-4.6,0.3-6.8-0.1c-2.2-0.5-4.4-1.3-6.3-2.6
	c-1.9-1.2-3.6-2.8-5-4.7c-1.3-1.9-2.3-4-2.9-6.2c-0.6-2.2-0.8-4.5-0.5-6.8s0.9-4.5,2-6.6c4.8-9.2,16.1-12.8,25.2-8
	c8,4.1,11.9,13.3,9.4,21.9c-0.1,0.4-0.2,0.7-0.3,1.1v0.4c0.1-0.1,0.2-0.2,0.3-0.3c0.2-0.3,0.3-0.7,0.4-1.1c2.1-7,0.1-14.6-5.1-19.7
	c-0.9-0.8-1.8-1.6-2.8-2.2c-5.1-3.4-11.6-4.2-17.4-2.2c-2.3,0.8-4.5,2-6.3,3.6c-1.9,1.6-3.5,3.6-4.7,5.8s-2,4.6-2.3,7.1
	s-0.2,5,0.5,7.4c1.2,4.9,4.3,9.2,8.5,12c2.1,1.4,4.5,2.3,6.9,2.9c5,1,10.1,0.1,14.5-2.5c2.2-1.3,4.1-3,5.6-5c1-1.2,1.7-2.6,2.1-4.1
	c0.1-0.4,0.2-0.8,0.2-1.2c0-0.2-0.1-0.4-0.2-0.5c-0.1-0.1-0.2,0-0.4,0.2c-0.3,0.3-0.5,0.6-0.7,0.9C912.7,996.7,911.9,998,911,999.1"
	/>
<path class="st9" d="M1709.7,729.6c-1.4,1.8-3.2,3.3-5.1,4.5c-2,1.2-4.1,2-6.4,2.3c-2.3,0.4-4.6,0.3-6.8-0.1
	c-2.2-0.5-4.4-1.3-6.3-2.6c-1.9-1.2-3.6-2.8-5-4.7c-1.3-1.9-2.3-4-2.9-6.2c-0.6-2.2-0.8-4.5-0.5-6.8c0.3-2.3,0.9-4.5,2-6.6
	c4.8-9.2,16.1-12.8,25.2-8c8,4.1,11.9,13.3,9.4,21.9c-0.1,0.4-0.2,0.7-0.3,1.1v0.4c0.1-0.1,0.2-0.2,0.3-0.3c0.2-0.3,0.3-0.7,0.4-1.1
	c2.1-7,0.1-14.6-5.1-19.7c-0.9-0.8-1.8-1.6-2.8-2.2c-5.1-3.4-11.6-4.2-17.4-2.2c-2.3,0.8-4.5,2-6.3,3.6c-1.9,1.6-3.5,3.6-4.7,5.8
	c-1.2,2.2-2,4.6-2.3,7.1c-0.3,2.5-0.2,5,0.5,7.4c1.2,4.9,4.3,9.2,8.5,12c2.1,1.4,4.5,2.3,6.9,2.9c5,1,10.1,0.1,14.5-2.5
	c2.2-1.3,4.1-3,5.6-5c1-1.2,1.7-2.6,2.1-4.1c0.1-0.4,0.2-0.8,0.2-1.2c0-0.2-0.1-0.4-0.2-0.5s-0.2,0-0.4,0.2
	c-0.3,0.3-0.5,0.6-0.7,0.9C1711.4,727.2,1710.6,728.5,1709.7,729.6"/>
</svg>
